<?xml version="1.0" standalone="no"?>
<!DOCTYPE svg PUBLIC "-//W3C//DTD SVG 20010904//EN"
 "http://www.w3.org/TR/2001/REC-SVG-20010904/DTD/svg10.dtd">
<svg version="1.0" xmlns="http://www.w3.org/2000/svg"
 width="300.000000pt" height="169.000000pt" viewBox="0 0 300.000000 169.000000"
 preserveAspectRatio="xMidYMid meet">
<metadata>
Created by potrace 1.10, written by Peter Selinger 2001-2011
</metadata>
<g transform="translate(0.000000,169.000000) scale(0.100000,-0.100000)"
fill="#000000" stroke="none">
<path d="M1387 1300 c3 -11 7 -20 9 -20 2 0 4 9 4 20 0 11 -4 20 -9 20 -5 0
-7 -9 -4 -20z"/>
<path d="M1410 1304 c0 -6 7 -14 15 -18 10 -3 15 1 15 13 0 10 -7 18 -15 18
-8 0 -15 -6 -15 -13z"/>
<path d="M1470 1306 c0 -8 -5 -16 -12 -18 -7 -3 -5 -7 6 -11 10 -4 15 -3 11 3
-3 6 -1 10 4 10 6 0 11 7 11 15 0 8 -4 15 -10 15 -5 0 -10 -6 -10 -14z"/>
<path d="M1513 1299 c-1 -11 2 -19 8 -19 5 0 9 5 9 10 0 7 6 7 20 0 17 -9 20
-8 20 7 0 26 -55 28 -57 2z"/>
<path d="M1583 1305 c0 -8 4 -12 8 -9 4 2 10 -2 12 -8 3 -7 6 -3 6 10 1 12 -5
22 -12 22 -8 0 -14 -7 -14 -15z"/>
<path d="M1215 1157 c-102 -34 -181 -100 -228 -192 -30 -56 -32 -67 -32 -165
0 -93 3 -112 27 -162 69 -147 244 -240 396 -209 124 25 226 101 279 209 25 51
28 68 28 157 0 93 -2 105 -32 166 -63 128 -176 200 -318 206 -48 2 -96 -3
-120 -10z m105 -176 l0 -179 177 -2 c172 -1 198 -3 178 -18 -6 -4 -11 -18 -12
-32 -7 -73 -39 -143 -88 -191 -27 -27 -62 -55 -77 -62 -15 -6 -28 -15 -28 -19
0 -5 -4 -8 -9 -8 -4 0 -34 64 -66 142 -32 79 -63 152 -70 164 -9 13 -70 44
-167 84 -84 35 -157 67 -161 71 -11 9 42 91 54 83 5 -3 9 -2 8 3 -4 15 13 43
22 37 5 -3 9 2 9 10 0 9 2 16 4 16 2 0 12 3 22 7 12 4 15 3 10 -5 -4 -7 -2
-12 5 -12 6 0 9 8 6 19 -4 15 4 23 37 35 22 8 59 18 81 22 22 3 42 8 44 10 17
16 21 -18 21 -175z m113 147 c50 -16 67 -26 67 -40 0 -10 5 -18 10 -18 6 0 10
5 10 12 0 6 10 1 23 -12 49 -53 87 -103 87 -114 0 -12 -45 -34 -180 -88 -41
-17 -79 -35 -85 -41 -13 -13 -8 -11 141 52 67 28 126 51 131 51 13 0 32 -57
26 -80 -3 -13 0 -20 8 -20 9 0 10 -3 3 -10 -7 -7 -70 -9 -169 -8 l-158 3 -10
29 c-7 20 -6 30 3 36 7 4 8 10 2 13 -5 4 -8 37 -7 74 2 38 3 94 4 126 1 38 5
57 14 57 6 0 42 -10 80 -22z m-413 -230 c0 -4 10 -8 21 -8 12 0 38 -9 58 -20
58 -32 201 -90 202 -82 0 6 20 -34 23 -48 1 -3 6 -14 12 -25 10 -19 57 -134
60 -145 0 -3 8 -22 17 -42 28 -61 24 -66 -57 -77 -48 -7 -53 -6 -48 11 3 12
-1 18 -12 18 -9 0 -16 -6 -17 -12 0 -10 -2 -10 -6 0 -2 6 -9 12 -14 12 -6 0
-8 -4 -4 -9 3 -5 1 -12 -4 -15 -5 -4 -12 -2 -16 4 -3 5 -13 10 -22 10 -30 0
-97 39 -139 79 -36 36 -65 83 -91 151 -11 28 -11 179 -1 196 8 13 38 14 38 2z"/>
<path d="M1150 1085 c0 -8 5 -15 10 -15 6 0 10 7 10 15 0 8 -4 15 -10 15 -5 0
-10 -7 -10 -15z"/>
<path d="M1573 625 c0 -8 4 -15 9 -15 4 0 8 7 8 15 0 8 -4 15 -8 15 -5 0 -9
-7 -9 -15z"/>
<path d="M1600 625 c0 -8 5 -15 10 -15 6 0 10 7 10 15 0 8 -4 15 -10 15 -5 0
-10 -7 -10 -15z"/>
<path d="M1473 1085 c0 -8 4 -15 9 -15 4 0 8 7 8 15 0 8 -4 15 -8 15 -5 0 -9
-7 -9 -15z"/>
<path d="M1631 844 c0 -11 3 -14 6 -6 3 7 2 16 -1 19 -3 4 -6 -2 -5 -13z"/>
<path d="M995 767 c-4 -10 -5 -21 -1 -24 10 -10 18 4 13 24 -4 17 -4 17 -12 0z"/>
<path d="M2243 975 c0 -8 4 -12 8 -9 4 2 10 -2 12 -8 3 -7 6 -3 6 10 1 12 -5
22 -12 22 -8 0 -14 -7 -14 -15z"/>
<path d="M2280 970 c0 -13 6 -20 18 -19 9 0 12 3 5 5 -7 3 -9 12 -6 20 3 8 0
14 -6 14 -6 0 -11 -9 -11 -20z"/>
<path d="M2317 984 c-8 -8 3 -34 14 -34 5 0 9 9 9 20 0 19 -11 26 -23 14z"/>
<path d="M2350 976 c0 -8 7 -16 15 -20 10 -4 15 1 15 14 0 11 -7 20 -15 20 -8
0 -15 -6 -15 -14z"/>
<path d="M2393 970 c-1 -11 2 -20 5 -20 4 0 8 9 9 20 1 11 -2 20 -5 20 -4 0
-8 -9 -9 -20z"/>
<path d="M2200 970 c0 -5 5 -10 10 -10 6 0 10 5 10 10 0 6 -4 10 -10 10 -5 0
-10 -4 -10 -10z"/>
<path d="M2243 916 c3 -24 27 -34 27 -11 0 9 -4 14 -9 11 -5 -4 -12 0 -15 6
-3 7 -5 4 -3 -6z"/>
<path d="M2281 913 c-1 -18 4 -22 29 -21 17 1 30 6 30 14 0 15 -40 15 -41 -1
0 -5 -4 -1 -9 10 -8 19 -9 19 -9 -2z"/>
<path d="M2412 922 c-13 -2 -21 -9 -19 -15 4 -13 97 -17 97 -4 0 4 5 7 11 7 5
0 7 -4 4 -10 -3 -5 -1 -10 4 -10 6 0 11 7 11 15 0 10 -10 14 -33 13 -19 -1
-38 1 -43 3 -5 3 -19 3 -32 1z"/>
<path d="M2200 905 c0 -8 5 -15 10 -15 6 0 10 7 10 15 0 8 -4 15 -10 15 -5 0
-10 -7 -10 -15z"/>
<path d="M2352 908 c6 -18 28 -21 28 -4 0 9 -7 16 -16 16 -9 0 -14 -5 -12 -12z"/>
<path d="M2240 839 c0 -24 23 -21 28 4 2 10 -3 17 -12 17 -10 0 -16 -9 -16
-21z"/>
<path d="M2283 845 c0 -8 6 -15 14 -15 7 0 13 7 13 15 0 8 -6 15 -13 15 -8 0
-14 -7 -14 -15z"/>
<path d="M2323 840 c-1 -11 2 -20 7 -20 10 0 20 26 13 34 -12 11 -19 6 -20
-14z"/>
<path d="M2200 840 c0 -5 5 -10 10 -10 6 0 10 5 10 10 0 6 -4 10 -10 10 -5 0
-10 -4 -10 -10z"/>
<path d="M2240 780 c0 -11 7 -20 15 -20 8 0 15 6 15 14 0 8 -7 16 -15 20 -10
4 -15 -1 -15 -14z"/>
<path d="M2280 780 c0 -22 7 -25 30 -10 9 6 17 5 22 -3 5 -8 8 -6 8 7 0 13 -5
17 -20 13 -11 -3 -20 -1 -20 4 0 5 -4 9 -10 9 -5 0 -10 -9 -10 -20z"/>
<path d="M2396 793 c-12 -12 -6 -33 9 -33 8 0 15 6 15 14 0 17 -14 28 -24 19z"/>
<path d="M2200 775 c0 -8 5 -15 10 -15 6 0 10 7 10 15 0 8 -4 15 -10 15 -5 0
-10 -7 -10 -15z"/>
<path d="M2352 778 c6 -18 28 -21 28 -4 0 9 -7 16 -16 16 -9 0 -14 -5 -12 -12z"/>
<path d="M2200 715 c0 -8 5 -15 10 -15 6 0 10 7 10 15 0 8 -4 15 -10 15 -5 0
-10 -7 -10 -15z"/>
<path d="M2245 720 c-8 -13 4 -32 16 -25 12 8 12 35 0 35 -6 0 -13 -4 -16 -10z"/>
<path d="M2280 709 c0 -24 23 -21 28 4 2 10 -3 17 -12 17 -10 0 -16 -9 -16
-21z"/>
<path d="M2320 715 c0 -8 5 -15 10 -15 6 0 10 7 10 15 0 8 -4 15 -10 15 -5 0
-10 -7 -10 -15z"/>
<path d="M2352 718 c6 -18 28 -21 28 -4 0 9 -7 16 -16 16 -9 0 -14 -5 -12 -12z"/>
<path d="M2393 715 c0 -8 4 -12 9 -9 4 3 8 9 8 15 0 5 -4 9 -8 9 -5 0 -9 -7
-9 -15z"/>
<path d="M2236 662 c-2 -4 -1 -13 3 -20 9 -15 51 -4 51 14 0 19 -16 18 -24 -2
-3 -8 -11 -12 -17 -8 -8 4 -7 9 2 15 10 6 10 9 2 9 -6 0 -14 -4 -17 -8z"/>
<path d="M2307 663 c-11 -11 -8 -23 6 -23 8 0 14 7 14 15 0 16 -9 19 -20 8z"/>
<path d="M2353 658 c8 -5 7 -8 -3 -9 -8 -1 1 -5 20 -9 24 -6 37 -5 42 3 6 9 8
9 8 0 0 -7 5 -13 10 -13 6 0 10 8 10 18 0 16 -8 19 -49 18 -27 0 -44 -4 -38
-8z"/>
<path d="M2453 650 c-1 -11 2 -20 5 -20 4 0 8 9 9 20 1 11 -2 20 -5 20 -4 0
-8 -9 -9 -20z"/>
<path d="M2200 650 c0 -5 5 -10 10 -10 6 0 10 5 10 10 0 6 -4 10 -10 10 -5 0
-10 -4 -10 -10z"/>
</g>
</svg>
