<?xml version="1.0" standalone="no"?>
<!DOCTYPE svg PUBLIC "-//W3C//DTD SVG 20010904//EN"
 "http://www.w3.org/TR/2001/REC-SVG-20010904/DTD/svg10.dtd">
<svg version="1.0" xmlns="http://www.w3.org/2000/svg"
 width="300.000000pt" height="169.000000pt" viewBox="0 0 300.000000 169.000000"
 preserveAspectRatio="xMidYMid meet">
<metadata>
Created by potrace 1.10, written by Peter Selinger 2001-2011
</metadata>
<g transform="translate(0.000000,169.000000) scale(0.100000,-0.100000)"
fill="#000000" stroke="none">
<path d="M1387 1300 c3 -11 7 -20 9 -20 2 0 4 9 4 20 0 11 -4 20 -9 20 -5 0
-7 -9 -4 -20z"/>
<path d="M1410 1304 c0 -6 7 -14 15 -18 10 -3 15 1 15 13 0 10 -7 18 -15 18
-8 0 -15 -6 -15 -13z"/>
<path d="M1470 1306 c0 -8 -5 -16 -12 -18 -7 -3 -5 -7 6 -11 10 -4 15 -3 11 3
-3 6 -1 10 4 10 6 0 11 7 11 15 0 8 -4 15 -10 15 -5 0 -10 -6 -10 -14z"/>
<path d="M1518 1297 c3 -12 7 -16 10 -9 2 8 9 9 23 2 15 -9 19 -7 19 7 0 13
-8 19 -29 19 -24 1 -28 -2 -23 -19z"/>
<path d="M1583 1305 c0 -8 4 -12 8 -9 4 2 10 -2 12 -8 3 -7 6 -3 6 10 1 12 -5
22 -12 22 -8 0 -14 -7 -14 -15z"/>
<path d="M1223 1156 c-101 -33 -178 -100 -230 -198 -25 -48 -28 -63 -28 -158
0 -95 3 -110 28 -162 73 -149 244 -239 394 -209 130 26 225 96 279 207 26 54
29 68 29 164 0 98 -2 109 -32 165 -38 74 -106 138 -181 173 -69 31 -192 40
-259 18z m107 -176 c0 -99 -3 -180 -6 -180 -13 0 -314 155 -314 162 0 10 124
138 133 138 5 0 5 -4 2 -10 -3 -5 -1 -10 4 -10 6 0 11 9 11 20 0 14 10 22 38
30 73 20 107 28 120 29 9 1 12 -41 12 -179z m120 147 c42 -14 60 -26 60 -41 0
-6 -5 -4 -10 4 -5 8 -10 11 -10 5 0 -5 -5 -3 -10 5 -7 12 -9 11 -8 -6 2 -22
39 -27 46 -6 4 14 99 -77 106 -104 6 -19 -8 -29 -128 -88 -73 -36 -137 -66
-140 -66 -4 0 -6 72 -5 160 l2 161 31 -6 c17 -4 47 -12 66 -18z m224 -284 c0
-29 3 -53 6 -53 11 0 -2 -61 -14 -66 -6 -2 -81 15 -166 39 l-155 44 150 75
150 76 14 -32 c8 -17 14 -55 15 -83z m-570 43 c47 -24 86 -41 86 -38 0 4 4 2
8 -4 9 -14 67 -44 84 -44 16 0 39 -35 43 -64 5 -36 25 -139 35 -184 6 -23 10
-56 10 -72 0 -30 0 -30 -59 -30 -72 0 -91 6 -91 31 0 10 -5 19 -11 19 -5 0 -8
-4 -4 -9 14 -23 -16 -18 -58 9 -80 54 -136 134 -161 231 -11 41 -11 49 2 54
12 4 12 8 2 20 -11 13 -10 26 0 70 7 30 16 55 20 55 4 0 46 -20 94 -44z m401
-136 c142 -40 195 -59 168 -60 -6 0 -15 -10 -18 -22 -17 -55 -71 -122 -129
-160 -32 -21 -67 -38 -77 -38 -10 0 -24 -7 -33 -15 -19 -19 -20 -17 -40 90 -9
50 -24 123 -32 164 -17 89 -17 94 -1 88 6 -2 80 -23 162 -47z"/>
<path d="M1170 1095 c0 -8 5 -15 10 -15 6 0 10 7 10 15 0 8 -4 15 -10 15 -5 0
-10 -7 -10 -15z"/>
<path d="M1643 805 c0 -8 4 -15 9 -15 4 0 8 7 8 15 0 8 -4 15 -8 15 -5 0 -9
-7 -9 -15z"/>
<path d="M1003 795 c0 -8 4 -15 9 -15 4 0 8 7 8 15 0 8 -4 15 -8 15 -5 0 -9
-7 -9 -15z"/>
<path d="M1232 486 c1 -10 8 -17 13 -17 15 1 12 24 -3 29 -9 3 -13 -2 -10 -12z"/>
<path d="M1523 555 c0 -8 4 -15 9 -15 4 0 8 7 8 15 0 8 -4 15 -8 15 -5 0 -9
-7 -9 -15z"/>
<path d="M1550 555 c0 -8 5 -15 10 -15 6 0 10 7 10 15 0 8 -4 15 -10 15 -5 0
-10 -7 -10 -15z"/>
<path d="M2263 975 c0 -8 4 -12 8 -9 4 2 10 -2 12 -8 3 -7 6 -3 6 10 1 12 -5
22 -12 22 -8 0 -14 -7 -14 -15z"/>
<path d="M2334 978 c-4 -7 -3 -8 4 -4 8 5 10 2 6 -8 -3 -9 -1 -16 5 -16 6 0
11 9 11 20 0 22 -15 27 -26 8z"/>
<path d="M2370 976 c0 -8 7 -16 15 -20 10 -4 15 1 15 14 0 11 -7 20 -15 20 -8
0 -15 -6 -15 -14z"/>
<path d="M2220 970 c0 -5 5 -10 10 -10 6 0 10 5 10 10 0 6 -4 10 -10 10 -5 0
-10 -4 -10 -10z"/>
<path d="M2308 953 c7 -3 16 -2 19 1 4 3 -2 6 -13 5 -11 0 -14 -3 -6 -6z"/>
<path d="M2261 919 c-1 -9 6 -19 14 -23 9 -3 15 0 15 10 0 8 -4 13 -9 10 -5
-4 -12 0 -14 6 -4 8 -6 7 -6 -3z"/>
<path d="M2303 915 c2 -14 11 -20 35 -22 20 -2 31 1 27 7 -3 6 -1 10 4 10 6 0
11 -4 11 -10 0 -5 5 -10 10 -10 6 0 10 7 10 15 0 12 -10 15 -40 13 -22 -1 -40
-7 -41 -12 0 -6 -5 -2 -10 9 -9 20 -9 20 -6 0z"/>
<path d="M2450 915 c0 -8 3 -15 8 -16 4 0 19 -2 35 -4 19 -3 27 1 27 12 0 8
-6 13 -12 10 -7 -2 -23 0 -35 4 -17 6 -23 5 -23 -6z"/>
<path d="M2220 905 c0 -8 5 -15 10 -15 6 0 10 7 10 15 0 8 -4 15 -10 15 -5 0
-10 -7 -10 -15z"/>
<path d="M2410 911 c0 -5 7 -11 15 -15 9 -3 15 0 15 9 0 8 -7 15 -15 15 -8 0
-15 -4 -15 -9z"/>
<path d="M2226 851 c-4 -7 -5 -15 -2 -18 9 -9 19 4 14 18 -4 11 -6 11 -12 0z"/>
<path d="M2260 846 c0 -8 7 -16 15 -20 10 -4 15 1 15 14 0 11 -7 20 -15 20 -8
0 -15 -6 -15 -14z"/>
<path d="M2301 854 c-1 -6 6 -17 14 -24 13 -10 15 -9 15 11 0 17 -3 20 -9 10
-7 -11 -9 -11 -14 0 -3 8 -6 9 -6 3z"/>
<path d="M2340 840 c0 -11 5 -20 11 -20 6 0 9 7 5 15 -3 9 0 15 9 15 8 0 15
-7 15 -15 0 -19 16 -20 23 -1 8 19 -1 26 -35 26 -21 0 -28 -5 -28 -20z"/>
<path d="M2262 784 c4 -23 27 -31 24 -8 -2 10 -8 20 -15 22 -8 3 -12 -3 -9
-14z"/>
<path d="M2417 793 c-13 -13 -7 -32 8 -27 8 4 15 12 15 20 0 15 -12 19 -23 7z"/>
<path d="M2220 775 c0 -8 5 -15 10 -15 6 0 10 7 10 15 0 8 -4 15 -10 15 -5 0
-10 -7 -10 -15z"/>
<path d="M2303 774 c0 -8 11 -12 29 -11 15 1 28 5 28 10 0 4 5 7 11 7 5 0 7
-4 4 -10 -3 -5 1 -10 9 -10 9 0 16 6 16 14 0 10 -13 14 -48 13 -33 0 -49 -5
-49 -13z"/>
<path d="M2220 715 c0 -8 5 -15 10 -15 6 0 10 7 10 15 0 8 -4 15 -10 15 -5 0
-10 -7 -10 -15z"/>
<path d="M2265 720 c-8 -13 4 -32 16 -25 12 8 12 35 0 35 -6 0 -13 -4 -16 -10z"/>
<path d="M2300 710 c0 -11 7 -20 15 -20 8 0 15 9 15 20 0 11 -7 20 -15 20 -8
0 -15 -9 -15 -20z"/>
<path d="M2340 715 c0 -8 5 -15 10 -15 6 0 10 7 10 15 0 8 -4 15 -10 15 -5 0
-10 -7 -10 -15z"/>
<path d="M2370 721 c0 -5 7 -14 15 -21 13 -10 15 -9 15 9 0 12 -6 21 -15 21
-8 0 -15 -4 -15 -9z"/>
<path d="M2260 649 c0 -15 4 -19 16 -15 9 3 20 6 25 6 5 0 9 7 9 15 0 20 -10
19 -27 -2 -14 -17 -14 -17 -9 0 3 9 1 17 -4 17 -6 0 -10 -9 -10 -21z"/>
<path d="M2327 663 c-12 -11 -8 -23 8 -23 8 0 15 7 15 15 0 16 -12 20 -23 8z"/>
<path d="M2370 660 c13 -9 13 -10 0 -11 -8 -1 1 -5 20 -9 24 -6 37 -5 42 3 6
9 8 9 8 0 0 -7 5 -13 10 -13 6 0 10 9 10 20 0 15 -6 19 -27 18 -16 -1 -31 -7
-35 -13 -5 -6 -8 -6 -8 3 0 6 -8 12 -17 12 -15 0 -16 -2 -3 -10z"/>
<path d="M2220 650 c0 -5 5 -10 10 -10 6 0 10 5 10 10 0 6 -4 10 -10 10 -5 0
-10 -4 -10 -10z"/>
</g>
</svg>
