<?xml version="1.0" standalone="no"?>
<!DOCTYPE svg PUBLIC "-//W3C//DTD SVG 20010904//EN"
 "http://www.w3.org/TR/2001/REC-SVG-20010904/DTD/svg10.dtd">
<svg version="1.0" xmlns="http://www.w3.org/2000/svg"
 width="300.000000pt" height="169.000000pt" viewBox="0 0 300.000000 169.000000"
 preserveAspectRatio="xMidYMid meet">
<metadata>
Created by potrace 1.10, written by Peter Selinger 2001-2011
</metadata>
<g transform="translate(0.000000,169.000000) scale(0.100000,-0.100000)"
fill="#000000" stroke="none">
<path d="M1383 1299 c-1 -11 2 -19 8 -19 5 0 9 5 9 10 0 7 6 7 20 0 17 -9 20
-8 20 7 0 26 -55 28 -57 2z"/>
<path d="M1470 1306 c0 -8 -5 -16 -12 -18 -7 -3 -5 -7 6 -11 10 -4 15 -3 11 3
-3 6 -1 10 4 10 6 0 11 7 11 15 0 8 -4 15 -10 15 -5 0 -10 -6 -10 -14z"/>
<path d="M1513 1299 c-1 -11 2 -19 8 -19 5 0 9 5 9 10 0 7 6 7 20 0 17 -9 20
-8 20 7 0 26 -55 28 -57 2z"/>
<path d="M1583 1305 c0 -8 4 -12 8 -9 4 2 10 -2 12 -8 3 -7 6 -3 6 10 1 12 -5
22 -12 22 -8 0 -14 -7 -14 -15z"/>
<path d="M1203 1156 c-104 -34 -185 -106 -232 -205 -23 -49 -26 -69 -26 -156
0 -89 3 -106 27 -155 74 -150 247 -241 402 -210 244 48 376 301 276 527 -29
66 -111 146 -183 179 -73 34 -194 43 -264 20z m109 -167 c2 -94 0 -176 -4
-182 -5 -8 -16 -3 -35 14 -15 14 -74 60 -130 102 -56 42 -104 81 -108 87 -8
13 55 71 69 63 6 -3 8 -3 4 2 -4 4 3 16 16 26 29 23 40 24 32 4 -3 -8 -1 -15
4 -15 6 0 10 9 10 20 0 12 8 21 23 24 12 2 40 8 62 14 22 5 43 10 47 11 4 0 8
-76 10 -170z m52 152 c3 -4 18 -7 33 -5 30 3 63 -11 63 -27 0 -6 -7 -3 -16 5
-19 20 -20 20 -20 -2 0 -18 28 -24 42 -9 13 13 104 -58 104 -81 0 -9 -55 -56
-91 -77 -14 -9 -38 -27 -111 -87 -12 -10 -25 -18 -30 -18 -9 0 -11 270 -2 294
7 18 20 21 28 7z m263 -191 c20 -38 26 -61 19 -63 -8 -3 -7 -8 2 -18 6 -7 12
-32 12 -56 l0 -43 -37 5 c-21 3 -94 12 -162 20 -68 8 -126 16 -127 18 -4 4
248 197 257 197 4 0 20 -27 36 -60z m-498 -40 c121 -90 173 -130 166 -130 -4
0 -3 -6 2 -12 6 -7 10 -20 10 -28 0 -8 8 -41 17 -74 10 -32 19 -70 21 -85 6
-35 10 -52 19 -73 4 -9 6 -25 4 -35 -4 -24 -72 -29 -149 -12 -49 11 -56 15
-52 33 3 18 2 19 -8 5 -11 -15 -14 -15 -32 0 -66 53 -95 85 -121 132 -29 53
-60 169 -46 169 4 0 7 19 8 43 0 40 23 108 44 134 8 10 17 8 40 -10 16 -12 51
-38 77 -57z m391 -135 c69 -8 132 -15 140 -15 11 0 11 -3 2 -12 -7 -7 -12 -22
-12 -33 0 -31 -64 -154 -68 -132 -2 9 -8 17 -14 17 -6 0 -8 -10 -4 -23 7 -28
-38 -67 -119 -102 l-53 -24 -37 157 c-20 86 -39 165 -42 176 -5 17 -1 18 38
12 24 -3 100 -13 169 -21z"/>
<path d="M1185 1120 c-4 -6 -3 -16 3 -22 6 -6 12 -6 17 2 4 6 3 16 -3 22 -6 6
-12 6 -17 -2z"/>
<path d="M1613 868 c-2 -18 0 -20 7 -8 12 18 13 30 2 30 -4 0 -9 -10 -9 -22z"/>
<path d="M980 816 c0 -9 5 -16 10 -16 6 0 10 4 10 9 0 6 -4 13 -10 16 -5 3
-10 -1 -10 -9z"/>
<path d="M1186 495 c4 -8 10 -12 15 -9 11 6 2 24 -11 24 -5 0 -7 -7 -4 -15z"/>
<path d="M1536 591 c-4 -7 -5 -15 -2 -18 9 -9 19 4 14 18 -4 11 -6 11 -12 0z"/>
<path d="M2223 975 c0 -8 4 -12 8 -9 4 2 10 -2 12 -8 3 -7 6 -3 6 10 1 12 -5
22 -12 22 -8 0 -14 -7 -14 -15z"/>
<path d="M2270 980 c0 -5 5 -10 11 -10 5 0 7 5 4 10 -3 6 -8 10 -11 10 -2 0
-4 -4 -4 -10z"/>
<path d="M2303 971 c1 -15 8 -19 29 -18 15 1 28 5 28 10 0 4 7 7 16 7 8 0 12
-4 9 -10 -3 -5 -1 -10 4 -10 6 0 11 9 11 20 0 17 -4 18 -25 10 -18 -7 -25 -6
-25 2 0 7 -7 3 -15 -8 -13 -16 -14 -16 -9 -1 4 11 1 17 -9 17 -9 0 -15 -8 -14
-19z"/>
<path d="M2410 970 c0 -11 7 -20 15 -20 8 0 15 9 15 20 0 11 -7 20 -15 20 -8
0 -15 -9 -15 -20z"/>
<path d="M2450 970 c0 -9 7 -17 15 -17 8 0 15 8 15 17 0 9 -7 17 -15 17 -8 0
-15 -8 -15 -17z"/>
<path d="M2491 974 c0 -11 3 -14 6 -6 3 7 2 16 -1 19 -3 4 -6 -2 -5 -13z"/>
<path d="M2512 970 c0 -14 2 -19 5 -12 2 6 2 18 0 25 -3 6 -5 1 -5 -13z"/>
<path d="M2180 970 c0 -5 7 -10 15 -10 8 0 15 5 15 10 0 6 -7 10 -15 10 -8 0
-15 -4 -15 -10z"/>
<path d="M2268 953 c7 -3 16 -2 19 1 4 3 -2 6 -13 5 -11 0 -14 -3 -6 -6z"/>
<path d="M2225 919 c-4 -5 -4 -13 -1 -16 3 -4 6 0 7 8 0 8 4 6 9 -6 7 -16 9
-17 9 -3 1 21 -15 32 -24 17z"/>
<path d="M2345 917 c-4 -10 -5 -21 -1 -24 10 -10 18 4 13 24 -4 17 -4 17 -12
0z"/>
<path d="M2180 905 c0 -9 5 -15 11 -13 6 2 11 8 11 13 0 5 -5 11 -11 13 -6 2
-11 -4 -11 -13z"/>
<path d="M2260 911 c0 -5 7 -11 15 -15 9 -3 15 0 15 9 0 8 -7 15 -15 15 -8 0
-15 -4 -15 -9z"/>
<path d="M2301 903 c0 -13 2 -14 6 -4 5 11 7 11 14 0 7 -11 9 -10 9 4 0 9 -7
17 -15 17 -8 0 -15 -8 -14 -17z"/>
<path d="M2377 914 c-8 -8 1 -24 14 -24 5 0 9 7 9 15 0 15 -12 20 -23 9z"/>
<path d="M2225 850 c-3 -5 1 -10 9 -10 9 0 16 5 16 10 0 6 -4 10 -9 10 -6 0
-13 -4 -16 -10z"/>
<path d="M2267 853 c-12 -11 -8 -23 8 -23 8 0 15 7 15 15 0 16 -12 20 -23 8z"/>
<path d="M2300 852 c0 -5 7 -9 15 -9 8 0 15 4 15 9 0 4 -7 8 -15 8 -8 0 -15
-4 -15 -8z"/>
<path d="M2336 845 c-3 -9 -10 -14 -15 -10 -5 3 -12 1 -16 -5 -8 -13 18 -13
32 1 7 7 13 7 17 1 7 -11 46 -4 46 9 0 4 -4 11 -10 14 -5 3 -10 0 -10 -7 0 -9
-3 -9 -10 2 -9 13 -10 13 -10 0 0 -12 -2 -12 -9 -2 -7 11 -9 10 -15 -3z"/>
<path d="M2414 844 c3 -9 6 -18 6 -20 0 -2 5 -4 10 -4 6 0 10 9 10 20 0 12 -7
20 -16 20 -11 0 -14 -5 -10 -16z"/>
<path d="M2180 840 c0 -5 7 -10 15 -10 8 0 15 5 15 10 0 6 -7 10 -15 10 -8 0
-15 -4 -15 -10z"/>
<path d="M2224 784 c2 -10 8 -20 15 -22 8 -3 12 3 9 14 -4 23 -27 31 -24 8z"/>
<path d="M2267 793 c-11 -10 -8 -20 8 -27 10 -4 15 1 15 14 0 20 -11 26 -23
13z"/>
<path d="M2344 783 c3 -22 53 -29 53 -8 0 18 -17 21 -17 3 -1 -8 -6 -6 -14 5
-17 22 -25 22 -22 0z"/>
<path d="M2417 793 c-13 -13 -7 -32 8 -27 8 4 15 12 15 20 0 15 -12 19 -23 7z"/>
<path d="M2182 779 c2 -6 8 -10 13 -10 5 0 11 4 13 10 2 6 -4 11 -13 11 -9 0
-15 -5 -13 -11z"/>
<path d="M2300 779 c0 -5 4 -8 9 -5 5 4 12 0 14 -6 3 -8 6 -6 6 5 1 9 -6 17
-14 17 -8 0 -15 -5 -15 -11z"/>
<path d="M2180 715 c0 -9 5 -15 11 -13 6 2 11 8 11 13 0 5 -5 11 -11 13 -6 2
-11 -4 -11 -13z"/>
<path d="M2227 724 c-7 -7 2 -34 12 -34 4 0 7 9 8 20 2 19 -8 26 -20 14z"/>
<path d="M2264 714 c3 -9 6 -18 6 -20 0 -3 5 -2 10 1 16 10 12 35 -6 35 -11 0
-14 -5 -10 -16z"/>
<path d="M2302 718 c6 -18 28 -21 28 -4 0 9 -7 16 -16 16 -9 0 -14 -5 -12 -12z"/>
<path d="M2342 718 c6 -18 28 -21 28 -4 0 9 -7 16 -16 16 -9 0 -14 -5 -12 -12z"/>
<path d="M2224 654 c3 -9 6 -18 6 -20 0 -2 5 -4 10 -4 6 0 10 9 10 20 0 12 -7
20 -16 20 -11 0 -14 -5 -10 -16z"/>
<path d="M2260 655 c0 -8 7 -15 15 -15 8 0 15 7 15 15 0 8 -7 15 -15 15 -8 0
-15 -7 -15 -15z"/>
<path d="M2300 655 c0 -8 6 -15 13 -15 8 0 14 7 14 15 0 8 -6 15 -14 15 -7 0
-13 -7 -13 -15z"/>
<path d="M2343 655 c0 -8 4 -15 9 -15 4 0 8 7 8 15 0 8 -4 15 -8 15 -5 0 -9
-7 -9 -15z"/>
<path d="M2377 663 c-11 -10 -8 -20 8 -27 10 -4 15 1 15 14 0 20 -11 26 -23
13z"/>
<path d="M2414 654 c3 -9 6 -18 6 -20 0 -2 5 -4 10 -4 6 0 10 9 10 20 0 12 -7
20 -16 20 -11 0 -14 -5 -10 -16z"/>
<path d="M2180 650 c0 -5 7 -10 15 -10 8 0 15 5 15 10 0 6 -7 10 -15 10 -8 0
-15 -4 -15 -10z"/>
</g>
</svg>
