<?xml version="1.0" standalone="no"?>
<!DOCTYPE svg PUBLIC "-//W3C//DTD SVG 20010904//EN"
 "http://www.w3.org/TR/2001/REC-SVG-20010904/DTD/svg10.dtd">
<svg version="1.0" xmlns="http://www.w3.org/2000/svg"
 width="300.000000pt" height="169.000000pt" viewBox="0 0 300.000000 169.000000"
 preserveAspectRatio="xMidYMid meet">
<metadata>
Created by potrace 1.10, written by Peter Selinger 2001-2011
</metadata>
<g transform="translate(0.000000,169.000000) scale(0.100000,-0.100000)"
fill="#000000" stroke="none">
<path d="M1383 1299 c-1 -11 2 -19 8 -19 5 0 9 5 9 10 0 7 6 7 20 0 17 -9 20
-8 20 7 0 26 -55 28 -57 2z"/>
<path d="M1470 1306 c0 -8 -5 -16 -12 -18 -7 -3 -5 -7 6 -11 10 -4 15 -3 11 3
-3 6 -1 10 4 10 6 0 11 7 11 15 0 8 -4 15 -10 15 -5 0 -10 -6 -10 -14z"/>
<path d="M1518 1297 c3 -12 7 -16 10 -9 2 8 9 9 23 2 15 -9 19 -7 19 7 0 13
-8 19 -29 19 -24 1 -28 -2 -23 -19z"/>
<path d="M1583 1305 c0 -8 4 -12 8 -9 4 2 10 -2 12 -8 3 -7 6 -3 6 10 1 12 -5
22 -12 22 -8 0 -14 -7 -14 -15z"/>
<path d="M1223 1156 c-104 -34 -185 -106 -232 -205 -23 -49 -26 -69 -26 -156
0 -89 3 -106 28 -157 139 -282 535 -283 673 -2 26 54 29 68 29 164 0 96 -2
110 -29 163 -37 71 -109 140 -184 175 -69 31 -192 40 -259 18z m147 -339 l35
13 -32 -6 -33 -6 0 165 0 165 43 -5 c23 -2 51 -9 62 -14 11 -5 32 -13 48 -19
17 -6 27 -17 27 -30 0 -11 5 -20 10 -20 6 0 10 5 10 12 0 21 71 -56 96 -104
l24 -47 -43 -15 c-23 -9 -80 -27 -125 -42 -46 -14 -82 -27 -79 -30 2 -2 60 13
128 35 68 22 125 38 127 36 3 -2 7 -43 9 -90 5 -73 3 -85 -11 -85 -18 0 -22
-26 -5 -32 7 -2 0 -23 -17 -53 -41 -75 -67 -106 -82 -100 -8 3 -10 0 -6 -6 4
-7 1 -10 -7 -7 -13 4 -44 44 -147 190 -26 38 -51 68 -56 68 -5 0 -4 -6 1 -12
54 -72 193 -267 193 -272 0 -3 -3 -5 -7 -4 -5 1 -30 -9 -58 -22 -38 -17 -74
-24 -147 -28 -95 -4 -97 -4 -91 17 3 12 1 21 -6 21 -6 0 -10 -3 -10 -7 4 -22
-5 -22 -50 2 -61 34 -122 96 -154 157 l-25 48 161 52 c174 56 173 55 165 63
-5 5 -153 -38 -188 -54 -42 -19 -130 -44 -136 -38 -4 4 -9 35 -10 70 -2 47 4
81 24 140 14 42 30 77 35 77 4 0 5 -4 2 -10 -3 -5 -1 -10 6 -10 6 0 9 8 6 19
-12 47 151 146 235 143 15 0 29 5 30 11 1 7 5 -69 8 -169 l5 -181 35 14z"/>
<path d="M1493 1075 c0 -8 4 -12 9 -9 4 3 8 9 8 15 0 5 -4 9 -8 9 -5 0 -9 -7
-9 -15z"/>
<path d="M1073 995 c0 -8 4 -15 9 -15 4 0 8 7 8 15 0 8 -4 15 -8 15 -5 0 -9
-7 -9 -15z"/>
<path d="M1626 715 c-3 -8 -1 -15 4 -15 6 0 10 7 10 15 0 8 -2 15 -4 15 -2 0
-6 -7 -10 -15z"/>
<path d="M1250 475 c0 -8 7 -15 15 -15 8 0 15 7 15 15 0 8 -7 15 -15 15 -8 0
-15 -7 -15 -15z"/>
<path d="M2333 923 c-7 -3 -13 -10 -13 -17 0 -15 38 -15 44 0 5 14 -13 23 -31
17z"/>
<path d="M2383 910 c-1 -11 2 -20 8 -20 5 0 9 9 9 20 0 11 -4 20 -8 20 -4 0
-8 -9 -9 -20z"/>
<path d="M2417 923 c-12 -12 -7 -33 7 -33 9 0 14 9 13 20 -1 20 -9 25 -20 13z"/>
<path d="M2452 913 c2 -9 9 -18 16 -21 18 -6 15 25 -4 32 -11 4 -14 1 -12 -11z"/>
<path d="M2490 910 c0 -13 5 -18 14 -14 8 3 12 12 9 20 -8 21 -23 17 -23 -6z"/>
<path d="M2220 905 c0 -8 5 -15 10 -15 6 0 10 7 10 15 0 8 -4 15 -10 15 -5 0
-10 -7 -10 -15z"/>
<path d="M2260 911 c0 -5 7 -11 15 -15 9 -3 15 0 15 9 0 8 -7 15 -15 15 -8 0
-15 -4 -15 -9z"/>
<path d="M2260 844 c0 -6 7 -14 15 -18 10 -3 15 1 15 13 0 10 -7 18 -15 18 -8
0 -15 -6 -15 -13z"/>
<path d="M2303 846 c0 -8 4 -13 9 -10 4 3 8 -1 8 -8 0 -10 2 -10 9 0 4 8 12
14 16 14 4 0 12 -6 16 -14 6 -9 9 -8 9 7 0 17 -7 21 -33 23 -24 2 -34 -2 -34
-12z"/>
<path d="M2380 840 c0 -11 5 -20 10 -20 6 0 10 9 10 20 0 11 -4 20 -10 20 -5
0 -10 -9 -10 -20z"/>
<path d="M2412 842 c5 -23 28 -27 28 -4 0 10 -7 19 -15 19 -9 0 -15 -7 -13
-15z"/>
<path d="M2220 840 c0 -5 5 -10 10 -10 6 0 10 5 10 10 0 6 -4 10 -10 10 -5 0
-10 -4 -10 -10z"/>
<path d="M2260 780 c0 -11 2 -20 4 -20 14 0 36 14 36 22 0 6 -8 4 -17 -3 -15
-12 -16 -12 -10 4 3 9 2 17 -3 17 -6 0 -10 -9 -10 -20z"/>
<path d="M2330 783 c0 -16 -2 -16 -11 -3 -9 13 -10 13 -6 0 6 -22 117 -27 117
-5 0 8 -5 15 -11 15 -5 0 -7 -4 -4 -10 3 -5 -1 -10 -9 -10 -9 0 -16 7 -16 15
0 8 -4 15 -10 15 -5 0 -10 -7 -10 -15 0 -8 -4 -15 -10 -15 -5 0 -10 7 -10 15
0 8 -4 15 -10 15 -5 0 -10 -8 -10 -17z"/>
<path d="M2440 783 c0 -21 21 -25 36 -7 12 17 13 17 8 2 -4 -12 -1 -18 10 -18
15 0 24 29 9 31 -47 5 -63 3 -63 -8z"/>
<path d="M2220 775 c0 -8 5 -15 10 -15 6 0 10 7 10 15 0 8 -4 15 -10 15 -5 0
-10 -7 -10 -15z"/>
<path d="M2220 715 c0 -8 5 -15 10 -15 6 0 10 7 10 15 0 8 -4 15 -10 15 -5 0
-10 -7 -10 -15z"/>
<path d="M2260 708 c0 -11 7 -18 18 -18 15 0 15 2 2 11 -11 8 -7 9 18 4 24 -5
32 -3 32 8 0 11 -10 15 -35 14 -27 -1 -35 -5 -35 -19z"/>
<path d="M2341 718 c-1 -10 6 -18 14 -18 8 0 15 8 15 18 0 13 -2 14 -9 3 -7
-11 -9 -11 -14 0 -4 10 -6 9 -6 -3z"/>
<path d="M2380 715 c0 -8 5 -15 10 -15 6 0 10 7 10 15 0 8 -4 15 -10 15 -5 0
-10 -7 -10 -15z"/>
<path d="M2415 713 c3 -8 5 -17 5 -19 0 -2 5 -4 10 -4 6 0 10 8 10 18 0 10 -7
19 -15 19 -10 0 -14 -6 -10 -14z"/>
<path d="M2450 721 c0 -5 7 -14 15 -21 13 -10 15 -9 15 9 0 12 -6 21 -15 21
-8 0 -15 -4 -15 -9z"/>
</g>
</svg>
