<?xml version="1.0" standalone="no"?>
<!DOCTYPE svg PUBLIC "-//W3C//DTD SVG 20010904//EN"
 "http://www.w3.org/TR/2001/REC-SVG-20010904/DTD/svg10.dtd">
<svg version="1.0" xmlns="http://www.w3.org/2000/svg"
 width="300.000000pt" height="169.000000pt" viewBox="0 0 300.000000 169.000000"
 preserveAspectRatio="xMidYMid meet">
<metadata>
Created by potrace 1.10, written by Peter Selinger 2001-2011
</metadata>
<g transform="translate(0.000000,169.000000) scale(0.100000,-0.100000)"
fill="#000000" stroke="none">
<path d="M1390 1305 c8 -9 7 -14 -2 -18 -7 -2 2 -4 19 -3 44 1 46 31 3 32 -24
1 -28 -1 -20 -11z"/>
<path d="M1470 1306 c0 -8 -5 -16 -12 -18 -7 -3 -5 -7 6 -11 10 -4 15 -3 11 3
-3 6 -1 10 4 10 6 0 11 7 11 15 0 8 -4 15 -10 15 -5 0 -10 -6 -10 -14z"/>
<path d="M1513 1299 c-1 -11 2 -19 8 -19 5 0 9 5 9 10 0 7 6 7 20 0 17 -9 20
-8 20 7 0 26 -55 28 -57 2z"/>
<path d="M1583 1305 c0 -8 4 -12 8 -9 4 2 10 -2 12 -8 3 -7 6 -3 6 10 1 12 -5
22 -12 22 -8 0 -14 -7 -14 -15z"/>
<path d="M1182 1150 c-103 -37 -174 -105 -224 -215 -18 -40 -22 -68 -22 -135
1 -158 69 -267 211 -337 68 -34 82 -37 156 -36 151 1 273 76 337 207 101 204
-8 456 -225 522 -67 20 -169 17 -233 -6z m128 -170 c0 -157 -1 -170 -19 -180
-11 -5 -28 -7 -38 -4 -17 5 -17 5 -1 -6 14 -9 15 -15 6 -35 -6 -14 -15 -25
-20 -25 -4 0 -8 -5 -8 -11 0 -6 -12 -30 -27 -53 -16 -22 -34 -53 -42 -68 -8
-16 -18 -28 -23 -28 -4 0 -8 -6 -8 -14 0 -7 -7 -19 -15 -26 -12 -10 -20 -9
-39 4 -32 21 -102 134 -98 159 2 12 -1 17 -7 13 -8 -5 -11 21 -11 83 0 66 3
91 13 91 8 0 7 4 -3 10 -11 7 -11 10 -2 10 7 0 11 4 8 8 -3 5 8 30 24 58 32
54 104 140 94 112 -3 -10 -1 -18 5 -18 6 0 11 9 11 19 0 20 54 47 125 61 81
16 75 30 75 -160z m126 144 c19 -8 34 -19 34 -25 0 -6 6 -9 14 -6 25 10 132
-108 118 -130 -7 -11 -117 -68 -217 -113 -27 -12 -53 -24 -57 -27 -5 -2 -8 71
-8 162 l0 167 41 -7 c23 -4 57 -14 75 -21z m203 -214 c19 -64 26 -140 12 -140
-6 0 -11 -7 -11 -15 0 -8 4 -15 10 -15 5 0 1 -23 -10 -51 -22 -56 -76 -139
-90 -139 -4 0 -39 35 -76 78 -37 42 -88 98 -112 124 -39 40 -48 68 -23 68 5 0
69 29 142 65 74 35 137 64 140 65 3 0 11 -18 18 -40z m-200 -259 c90 -103 120
-144 91 -126 -5 3 -10 2 -10 -3 0 -13 -100 -60 -149 -71 -35 -8 -40 -6 -45 13
-6 21 -7 21 -21 2 -8 -11 -15 -14 -15 -8 0 9 -4 9 -19 1 -26 -17 -154 27 -146
50 4 9 45 78 93 153 81 129 88 136 103 120 9 -9 62 -69 118 -131z"/>
<path d="M1120 1075 c0 -8 5 -15 10 -15 6 0 10 7 10 15 0 8 -4 15 -10 15 -5 0
-10 -7 -10 -15z"/>
<path d="M995 710 c-4 -6 -3 -16 3 -22 6 -6 12 -6 17 2 4 6 3 16 -3 22 -6 6
-12 6 -17 -2z"/>
<path d="M1449 1097 c6 -8 7 -18 3 -22 -4 -5 -2 -5 5 -1 14 8 6 36 -9 36 -7 0
-6 -5 1 -13z"/>
<path d="M1616 761 c-4 -7 -5 -15 -2 -18 9 -9 19 4 14 18 -4 11 -6 11 -12 0z"/>
<path d="M2250 941 c0 -12 6 -21 14 -21 17 0 15 32 -2 38 -7 2 -12 -6 -12 -17z"/>
<path d="M2300 950 c11 -7 11 -10 2 -10 -26 0 -3 -16 27 -18 24 -2 29 1 25 13
-7 18 -24 20 -24 3 0 -7 -5 -5 -11 5 -5 9 -15 17 -22 17 -7 0 -6 -4 3 -10z"/>
<path d="M2170 935 c0 -8 5 -15 10 -15 6 0 10 7 10 15 0 8 -4 15 -10 15 -5 0
-10 -7 -10 -15z"/>
<path d="M2210 941 c0 -5 7 -11 15 -15 9 -3 15 0 15 9 0 8 -7 15 -15 15 -8 0
-15 -4 -15 -9z"/>
<path d="M2170 875 c0 -8 5 -15 10 -15 6 0 10 7 10 15 0 8 -4 15 -10 15 -5 0
-10 -7 -10 -15z"/>
<path d="M2232 870 c0 -14 2 -19 5 -12 2 6 2 18 0 25 -3 6 -5 1 -5 -13z"/>
<path d="M2250 874 c0 -8 4 -13 9 -10 5 4 12 0 14 -6 4 -10 6 -10 6 0 1 7 6
10 11 7 6 -3 10 1 10 9 0 10 -9 16 -25 16 -16 0 -25 -6 -25 -16z"/>
<path d="M2310 868 c0 -19 2 -20 10 -8 9 13 11 13 20 0 8 -12 10 -11 10 8 0
15 -6 22 -20 22 -14 0 -20 -7 -20 -22z"/>
<path d="M2360 884 c0 -3 7 -12 15 -20 13 -14 15 -13 15 5 0 12 -6 21 -15 21
-8 0 -15 -3 -15 -6z"/>
<path d="M2406 883 c-11 -11 -6 -23 9 -23 8 0 15 4 15 9 0 13 -16 22 -24 14z"/>
<path d="M2210 816 c0 -8 7 -16 15 -20 10 -4 15 1 15 14 0 11 -7 20 -15 20 -8
0 -15 -6 -15 -14z"/>
<path d="M2251 813 c-1 -25 10 -29 40 -13 14 8 19 7 19 -2 0 -9 3 -9 10 2 14
22 12 26 -10 26 -11 0 -20 -5 -20 -11 0 -5 -5 -3 -10 5 -8 12 -10 12 -11 -5 0
-20 0 -20 -9 0 -8 19 -9 19 -9 -2z"/>
<path d="M2337 816 c-4 -10 -5 -21 -2 -24 9 -9 17 6 13 25 -3 17 -4 17 -11 -1z"/>
<path d="M2170 810 c0 -5 5 -10 10 -10 6 0 10 5 10 10 0 6 -4 10 -10 10 -5 0
-10 -4 -10 -10z"/>
<path d="M2214 758 c-5 -7 -3 -8 7 -3 12 8 12 6 0 -8 -12 -15 -11 -17 3 -17 9
0 16 8 16 20 0 22 -15 27 -26 8z"/>
<path d="M2273 762 c-25 -4 -31 -18 -10 -25 6 -2 18 3 25 12 11 14 11 14 6 -1
-4 -12 -1 -18 10 -18 19 0 22 26 4 32 -7 2 -23 2 -35 0z"/>
<path d="M2337 750 c-5 -18 0 -20 49 -20 41 0 54 4 54 15 0 8 -5 15 -11 15 -5
0 -7 -4 -4 -10 3 -5 -1 -10 -9 -10 -9 0 -16 7 -16 15 0 8 -4 15 -10 15 -5 0
-10 -7 -10 -15 0 -8 -4 -15 -10 -15 -5 0 -10 7 -10 15 0 22 -17 18 -23 -5z"/>
<path d="M2450 754 c0 -22 21 -27 36 -8 12 17 13 17 8 2 -7 -19 11 -25 21 -7
10 15 1 21 -34 23 -19 1 -31 -3 -31 -10z"/>
<path d="M2170 745 c0 -8 5 -15 10 -15 6 0 10 7 10 15 0 8 -4 15 -10 15 -5 0
-10 -7 -10 -15z"/>
<path d="M2170 685 c0 -8 5 -15 10 -15 6 0 10 7 10 15 0 8 -4 15 -10 15 -5 0
-10 -7 -10 -15z"/>
<path d="M2210 686 c0 -8 7 -16 15 -20 10 -4 15 1 15 14 0 11 -7 20 -15 20 -8
0 -15 -6 -15 -14z"/>
<path d="M2250 694 c0 -3 7 -12 15 -20 12 -12 15 -12 15 -2 0 10 2 10 9 -1 10
-16 31 -6 31 15 0 9 -11 14 -35 14 -19 0 -35 -3 -35 -6z"/>
<path d="M2334 684 c3 -9 6 -18 6 -20 0 -14 20 -1 20 14 1 16 1 16 14 0 17
-23 26 -23 26 0 0 15 -8 19 -36 20 -29 1 -35 -2 -30 -14z"/>
<path d="M2410 684 c0 -8 4 -13 9 -10 5 4 12 0 14 -6 3 -7 6 -3 6 10 1 13 -5
22 -14 22 -8 0 -15 -7 -15 -16z"/>
<path d="M2450 686 c0 -8 7 -16 15 -20 10 -4 15 1 15 14 0 11 -7 20 -15 20 -8
0 -15 -6 -15 -14z"/>
</g>
</svg>
