<?xml version="1.0" standalone="no"?>
<!DOCTYPE svg PUBLIC "-//W3C//DTD SVG 20010904//EN"
 "http://www.w3.org/TR/2001/REC-SVG-20010904/DTD/svg10.dtd">
<svg version="1.0" xmlns="http://www.w3.org/2000/svg"
 width="300.000000pt" height="169.000000pt" viewBox="0 0 300.000000 169.000000"
 preserveAspectRatio="xMidYMid meet">
<metadata>
Created by potrace 1.10, written by Peter Selinger 2001-2011
</metadata>
<g transform="translate(0.000000,169.000000) scale(0.100000,-0.100000)"
fill="#000000" stroke="none">
<path d="M1390 1305 c8 -9 7 -14 -2 -18 -7 -2 2 -4 19 -3 44 1 46 31 3 32 -24
1 -28 -1 -20 -11z"/>
<path d="M1470 1306 c0 -8 -5 -16 -12 -18 -7 -3 -5 -7 6 -11 10 -4 15 -3 11 3
-3 6 -1 10 4 10 6 0 11 7 11 15 0 8 -4 15 -10 15 -5 0 -10 -6 -10 -14z"/>
<path d="M1518 1297 c3 -12 7 -16 10 -9 2 8 9 9 23 2 15 -9 19 -7 19 7 0 13
-8 19 -29 19 -24 1 -28 -2 -23 -19z"/>
<path d="M1583 1305 c0 -8 4 -12 8 -9 4 2 10 -2 12 -8 3 -7 6 -3 6 10 1 12 -5
22 -12 22 -8 0 -14 -7 -14 -15z"/>
<path d="M1182 1150 c-103 -37 -174 -105 -224 -215 -18 -40 -22 -68 -22 -135
1 -158 69 -267 211 -337 69 -34 82 -37 156 -36 107 1 179 28 252 94 179 164
160 453 -39 585 -29 19 -75 42 -101 50 -67 20 -169 17 -233 -6z m130 -132 l2
-133 3 133 4 134 42 -7 c23 -4 61 -16 85 -26 39 -18 46 -27 43 -54 0 -5 5 -2
11 7 11 15 16 12 50 -25 20 -23 46 -58 57 -78 l21 -37 -143 -52 c-78 -29 -147
-55 -154 -57 -7 -3 -13 8 -16 29 l-4 33 -1 -36 c-2 -27 -8 -39 -27 -49 -14 -7
-25 -18 -25 -24 0 -6 -18 -31 -41 -56 -22 -25 -61 -71 -86 -102 -25 -32 -49
-55 -54 -52 -5 3 -6 -3 -2 -12 13 -36 -22 -6 -61 50 -25 37 -39 68 -38 87 0
16 -4 29 -9 29 -5 0 -9 25 -9 55 0 46 3 55 18 55 16 1 16 1 0 10 -32 19 5 122
74 200 17 19 28 29 24 23 -4 -7 -3 -13 2 -13 5 0 12 9 15 20 6 23 74 56 140
69 83 17 77 26 79 -121z m332 -123 c14 -53 17 -145 5 -145 -7 0 -9 -9 -5 -23
7 -28 -30 -108 -72 -157 -17 -19 -32 -33 -34 -30 -2 3 -28 33 -57 67 -29 34
-50 67 -46 73 3 5 0 8 -7 6 -12 -4 -114 111 -106 119 4 4 300 113 309 114 4 1
10 -10 13 -24z m-258 -190 c33 -38 79 -94 103 -123 l43 -52 -23 -20 c-13 -11
-27 -19 -32 -20 -4 0 -30 -11 -57 -24 -38 -19 -50 -21 -50 -10 0 8 -7 14 -15
14 -8 0 -15 -6 -15 -12 0 -10 -2 -10 -9 0 -7 11 -9 11 -14 -1 -10 -27 -157 13
-226 61 -11 8 11 39 100 145 85 101 117 133 125 124 5 -7 37 -43 70 -82z"/>
<path d="M1464 1080 c0 -13 4 -16 10 -10 7 7 7 13 0 20 -6 6 -10 3 -10 -10z"/>
<path d="M1105 1070 c-4 -6 -3 -16 3 -22 6 -6 12 -6 17 2 4 6 3 16 -3 22 -6 6
-12 6 -17 -2z"/>
<path d="M990 705 c0 -8 5 -15 10 -15 6 0 10 7 10 15 0 8 -4 15 -10 15 -5 0
-10 -7 -10 -15z"/>
<path d="M1613 735 c0 -8 4 -15 9 -15 4 0 8 7 8 15 0 8 -4 15 -8 15 -5 0 -9
-7 -9 -15z"/>
<path d="M2233 952 c-26 -4 -30 -17 -8 -26 8 -3 15 -1 15 5 0 6 7 6 20 -1 16
-8 20 -8 20 4 0 17 -17 23 -47 18z"/>
<path d="M2337 940 c-5 -18 0 -20 49 -20 41 0 54 4 54 15 0 8 -5 15 -11 15 -5
0 -7 -4 -4 -10 3 -5 -1 -10 -9 -10 -9 0 -16 7 -16 15 0 8 -4 15 -10 15 -5 0
-10 -7 -10 -15 0 -8 -4 -15 -10 -15 -5 0 -10 7 -10 15 0 22 -17 18 -23 -5z"/>
<path d="M2450 944 c0 -22 21 -27 36 -8 12 17 13 17 8 2 -7 -19 11 -25 21 -7
10 15 1 21 -34 23 -19 1 -31 -3 -31 -10z"/>
<path d="M2170 935 c0 -8 5 -15 10 -15 6 0 10 7 10 15 0 8 -4 15 -10 15 -5 0
-10 -7 -10 -15z"/>
<path d="M2290 934 c0 -17 22 -14 28 4 2 7 -3 12 -12 12 -9 0 -16 -7 -16 -16z"/>
<path d="M2170 875 c0 -8 5 -15 10 -15 6 0 10 7 10 15 0 8 -4 15 -10 15 -5 0
-10 -7 -10 -15z"/>
<path d="M2210 874 c0 -8 4 -13 9 -10 5 4 12 0 14 -6 3 -7 6 -3 6 10 1 13 -5
22 -14 22 -8 0 -15 -7 -15 -16z"/>
<path d="M2250 874 c0 -8 4 -13 9 -10 5 4 12 0 14 -6 3 -7 6 -3 6 10 1 13 -5
22 -14 22 -8 0 -15 -7 -15 -16z"/>
<path d="M2300 875 c0 -8 6 -15 13 -15 8 0 14 7 14 15 0 8 -6 15 -14 15 -7 0
-13 -7 -13 -15z"/>
<path d="M2340 875 c0 -10 10 -15 30 -15 20 0 30 5 30 15 0 8 -5 15 -11 15 -5
0 -7 -4 -4 -10 3 -5 -1 -10 -9 -10 -9 0 -16 5 -16 10 0 6 -4 10 -10 10 -5 0
-10 -7 -10 -15z"/>
<path d="M2410 876 c0 -8 7 -16 15 -20 10 -4 15 1 15 14 0 11 -7 20 -15 20 -8
0 -15 -6 -15 -14z"/>
<path d="M2452 874 c4 -21 22 -23 26 -1 2 10 -3 17 -13 17 -10 0 -15 -6 -13
-16z"/>
<path d="M2215 820 c-4 -6 -3 -16 3 -22 6 -6 12 -6 17 2 4 6 3 16 -3 22 -6 6
-12 6 -17 -2z"/>
<path d="M2250 814 c0 -6 7 -14 15 -18 10 -3 15 1 15 13 0 10 -7 18 -15 18 -8
0 -15 -6 -15 -13z"/>
<path d="M2293 816 c0 -8 7 -18 14 -21 10 -3 13 1 11 12 -4 21 -25 28 -25 9z"/>
<path d="M2343 808 c2 -22 13 -24 21 -2 8 21 8 21 -8 21 -8 0 -14 -9 -13 -19z"/>
<path d="M2386 821 c-4 -7 -5 -15 -2 -18 9 -9 19 4 14 18 -4 11 -6 11 -12 0z"/>
<path d="M2413 815 c0 -8 4 -12 8 -9 4 2 10 -2 12 -8 3 -7 6 -3 6 10 1 12 -5
22 -12 22 -8 0 -14 -7 -14 -15z"/>
<path d="M2454 816 c-8 -22 3 -33 18 -18 9 9 9 15 0 24 -9 9 -13 7 -18 -6z"/>
<path d="M2170 810 c0 -5 5 -10 10 -10 6 0 10 5 10 10 0 6 -4 10 -10 10 -5 0
-10 -4 -10 -10z"/>
<path d="M2235 760 c-4 -6 -11 -8 -16 -5 -5 4 -9 0 -9 -7 0 -20 38 -20 43 0 4
15 5 15 6 0 0 -10 9 -18 19 -17 10 0 12 3 5 6 -7 2 -13 9 -13 14 0 6 6 7 13 3
6 -4 9 -3 4 1 -12 13 -45 16 -52 5z"/>
<path d="M2307 750 c-3 -13 0 -20 9 -20 8 0 14 9 14 20 0 11 -4 20 -9 20 -5 0
-11 -9 -14 -20z"/>
<path d="M2347 763 c-4 -3 -7 -13 -7 -20 0 -10 11 -13 38 -11 38 3 48 20 15
26 -15 3 -16 1 -3 -7 12 -9 11 -11 -7 -11 -16 0 -21 4 -17 15 6 15 -7 21 -19
8z"/>
<path d="M2420 760 c0 -3 5 -12 10 -20 9 -13 11 -13 20 0 6 10 10 11 10 3 0
-7 5 -13 11 -13 25 0 2 33 -23 34 -16 1 -28 -1 -28 -4z"/>
<path d="M2170 745 c0 -8 5 -15 10 -15 6 0 10 7 10 15 0 8 -4 15 -10 15 -5 0
-10 -7 -10 -15z"/>
<path d="M2170 685 c0 -8 5 -15 10 -15 6 0 10 7 10 15 0 8 -4 15 -10 15 -5 0
-10 -7 -10 -15z"/>
<path d="M2210 689 c0 -5 4 -7 10 -4 6 3 7 -1 4 -9 -3 -9 -1 -16 5 -16 6 0 11
9 11 20 0 11 -7 20 -15 20 -8 0 -15 -5 -15 -11z"/>
<path d="M2250 685 c0 -8 7 -15 16 -15 8 0 12 5 8 11 -3 6 5 3 20 -6 26 -17
26 -17 26 6 0 19 -2 21 -10 9 -6 -10 -10 -11 -10 -2 0 6 -11 12 -25 12 -16 0
-25 -6 -25 -15z"/>
<path d="M2334 688 c4 -20 66 -23 66 -4 0 9 -4 16 -10 16 -5 0 -10 -6 -10 -12
0 -9 -4 -8 -10 2 -8 12 -11 13 -19 1 -6 -9 -10 -10 -14 -2 -3 7 -5 7 -3 -1z"/>
<path d="M2410 685 c0 -8 7 -15 15 -15 8 0 15 7 15 15 0 8 -7 15 -15 15 -8 0
-15 -7 -15 -15z"/>
<path d="M2453 685 c0 -8 6 -15 14 -15 7 0 13 7 13 15 0 8 -6 15 -13 15 -8 0
-14 -7 -14 -15z"/>
</g>
</svg>
