<?xml version="1.0" standalone="no"?>
<!DOCTYPE svg PUBLIC "-//W3C//DTD SVG 20010904//EN"
 "http://www.w3.org/TR/2001/REC-SVG-20010904/DTD/svg10.dtd">
<svg version="1.0" xmlns="http://www.w3.org/2000/svg"
 width="300.000000pt" height="169.000000pt" viewBox="0 0 300.000000 169.000000"
 preserveAspectRatio="xMidYMid meet">
<metadata>
Created by potrace 1.10, written by Peter Selinger 2001-2011
</metadata>
<g transform="translate(0.000000,169.000000) scale(0.100000,-0.100000)"
fill="#000000" stroke="none">
<path d="M1388 1488 c-8 -21 2 -38 23 -38 14 0 19 7 19 26 0 14 -4 23 -10 19
-6 -4 -8 -12 -4 -18 3 -7 -1 -4 -9 6 -11 13 -16 14 -19 5z"/>
<path d="M1444 1484 c1 -9 10 -20 19 -26 14 -7 17 -4 16 19 -1 17 -3 21 -6 11
-2 -10 -8 -18 -13 -18 -5 0 -7 7 -4 15 4 8 2 15 -4 15 -6 0 -9 -7 -8 -16z"/>
<path d="M1523 1493 c9 -2 17 -8 17 -13 0 -5 -8 -11 -17 -13 -10 -3 -1 -5 19
-6 20 0 43 -4 52 -7 12 -5 16 0 16 20 0 21 -5 26 -24 26 -15 0 -26 -7 -29 -17
-4 -17 -5 -17 -6 0 -1 11 -9 17 -23 16 -17 -1 -19 -2 -5 -6z"/>
<path d="M1633 1486 c18 -14 18 -14 0 -19 -12 -3 -10 -5 9 -6 21 -1 25 3 21
19 -3 12 -14 20 -27 20 -20 -1 -20 -1 -3 -14z"/>
<path d="M486 1391 c-4 -7 -5 -15 -2 -18 9 -9 19 4 14 18 -4 11 -6 11 -12 0z"/>
<path d="M513 1381 c0 -11 5 -17 9 -15 11 7 10 34 -1 34 -6 0 -9 -9 -8 -19z"/>
<path d="M1058 1373 c277 -2 727 -2 1000 0 273 1 47 2 -503 2 -550 0 -774 -1
-497 -2z"/>
<path d="M1886 1288 c6 -17 -32 -18 -662 -21 -368 -1 -219 -2 331 -2 550 0
859 1 688 3 -269 2 -313 4 -313 17 0 8 -4 15 -10 15 -5 0 -10 -8 -10 -17 0
-15 -2 -14 -15 3 -12 16 -14 16 -9 2z"/>
<path d="M516 1271 c-4 -7 -5 -15 -2 -18 9 -9 19 4 14 18 -4 11 -6 11 -12 0z"/>
<path d="M1825 790 l0 -450 110 0 c61 0 225 -1 367 -3 141 -1 254 1 251 6 -2
4 -132 7 -289 7 l-284 0 0 50 0 50 288 3 287 2 -287 3 -288 2 0 55 0 55 288 3
287 2 -287 3 -288 2 0 50 0 50 288 3 287 2 -287 3 -288 2 0 55 0 55 288 3 287
2 -287 3 -288 2 0 50 0 50 288 3 287 2 -287 3 -288 2 0 55 0 55 288 3 287 2
-287 3 -288 2 0 50 0 50 288 3 287 2 -287 3 -288 2 0 45 0 45 -77 0 -78 0 0
-450z m128 421 c4 0 7 -190 7 -421 l-1 -420 -23 -6 c-13 -3 -37 -4 -52 -2
l-29 3 -3 427 -2 426 47 -3 c27 -1 51 -3 56 -4z"/>
<path d="M1683 1205 c0 -8 4 -15 9 -15 4 0 8 7 8 15 0 8 -4 15 -8 15 -5 0 -9
-7 -9 -15z"/>
<path d="M1710 1203 c0 -7 9 -13 20 -13 11 0 20 6 20 14 0 9 -9 14 -20 13 -11
-1 -20 -7 -20 -14z"/>
<path d="M1374 1171 c0 -11 4 -17 8 -15 4 3 8 12 8 20 0 8 -4 14 -8 14 -4 0
-8 -9 -8 -19z"/>
<path d="M1404 1179 c-3 -6 0 -15 7 -20 22 -14 29 -11 29 11 0 21 -24 27 -36
9z"/>
<path d="M484 1151 c0 -11 4 -17 8 -15 4 3 8 12 8 20 0 8 -4 14 -8 14 -4 0 -8
-9 -8 -19z"/>
<path d="M513 1151 c0 -11 5 -17 9 -15 11 7 10 34 -1 34 -6 0 -9 -9 -8 -19z"/>
<path d="M1630 755 l0 -415 93 1 c50 0 86 3 79 6 -10 4 -12 90 -12 401 0 219
0 403 0 410 0 8 -23 12 -80 12 l-80 0 0 -415z m131 343 c1 -46 1 -718 0 -730
-1 -9 -57 -10 -87 -2 -21 5 -21 8 -21 377 0 205 2 378 4 385 3 7 24 12 54 12
l49 0 1 -42z"/>
<path d="M752 1143 c108 -2 288 -2 400 0 112 1 23 2 -197 2 -220 0 -311 -1
-203 -2z"/>
<path d="M1493 1143 c26 -2 67 -2 90 0 23 2 2 3 -48 3 -49 0 -68 -1 -42 -3z"/>
<path d="M684 1110 c0 -11 4 -20 8 -20 4 0 8 9 8 20 0 11 -4 20 -8 20 -4 0 -8
-9 -8 -20z"/>
<path d="M721 1113 c-1 -14 4 -20 14 -19 9 1 15 5 15 9 0 4 0 13 0 20 0 9 -3
8 -9 -2 -7 -11 -9 -11 -14 0 -3 8 -6 5 -6 -8z"/>
<path d="M1328 736 l-3 -395 115 -3 c63 -2 131 0 150 3 26 5 16 7 -36 8 l-70
1 -3 50 -2 49 73 4 73 3 -72 2 -73 2 0 55 0 54 73 4 72 3 -72 2 -73 2 0 50 0
49 73 4 72 3 -72 2 -73 2 0 55 0 54 73 4 72 3 -72 2 -73 2 0 50 0 49 73 4 72
3 -72 2 -73 2 0 55 0 54 73 4 72 3 -73 2 -74 2 4 43 3 42 -77 3 -78 3 -2 -395z
m121 359 c10 -10 13 -160 12 -536 l-1 -196 -52 1 -53 1 -2 360 c-1 198 0 365
2 372 5 14 80 12 94 -2z"/>
<path d="M640 705 l0 -365 93 0 c60 0 87 4 77 10 -12 7 -14 64 -14 364 l0 356
-78 0 -78 0 0 -365z m132 156 c1 -170 1 -236 -1 -432 l-1 -67 -52 2 -51 1 -2
325 c-1 179 0 333 3 343 4 14 14 17 53 16 l49 -2 2 -186z"/>
<path d="M513 1035 c0 -8 4 -15 9 -15 4 0 8 7 8 15 0 8 -4 15 -8 15 -5 0 -9
-7 -9 -15z"/>
<path d="M578 1033 c12 -2 30 -2 40 0 9 3 -1 5 -23 4 -22 0 -30 -2 -17 -4z"/>
<path d="M848 1033 c23 -2 40 -8 37 -14 -4 -5 -1 -9 4 -9 6 0 11 6 11 13 0 8
3 8 9 -2 7 -11 13 -12 23 -3 10 8 78 13 199 15 138 2 121 3 -71 3 -140 0 -236
-1 -212 -3z"/>
<path d="M830 666 l0 -325 119 -3 c65 -2 131 0 147 3 19 5 6 7 -38 8 l-68 1 0
50 0 49 68 4 67 3 -67 2 -68 2 0 55 0 54 68 4 67 3 -67 2 -68 2 0 50 0 49 68
4 67 3 -67 2 -68 2 0 55 0 54 68 4 67 3 -67 2 -68 2 0 50 0 49 68 4 67 3 -67
2 -68 2 0 35 0 35 -80 0 -80 0 0 -324z m133 275 c8 -40 7 -571 -1 -572 -66 -6
-94 -5 -100 5 -7 11 -13 575 -6 587 2 4 26 7 53 7 45 0 49 -2 54 -27z"/>
<path d="M1190 962 c0 -12 4 -22 9 -22 10 0 9 26 -2 36 -4 4 -7 -2 -7 -14z"/>
<path d="M1223 960 c1 -11 5 -20 9 -20 3 0 6 9 5 20 -1 11 -5 20 -9 20 -3 0
-6 -9 -5 -20z"/>
<path d="M483 920 c-1 -11 2 -20 5 -20 4 0 8 9 9 20 1 11 -2 20 -5 20 -4 0 -8
-9 -9 -20z"/>
<path d="M513 921 c0 -11 5 -17 9 -15 11 7 10 34 -1 34 -6 0 -9 -9 -8 -19z"/>
<path d="M573 913 c9 -2 25 -2 35 0 9 3 1 5 -18 5 -19 0 -27 -2 -17 -5z"/>
<path d="M1130 630 l0 -290 93 1 c50 0 86 3 80 6 -10 3 -13 70 -13 283 0 213
3 280 13 283 6 3 -30 6 -80 6 l-93 1 0 -290z m131 261 c1 -3 3 -122 4 -264 2
-255 2 -257 -19 -262 -11 -2 -34 -3 -51 -2 l-30 2 -3 259 c-2 196 1 261 10
267 14 9 87 9 89 0z"/>
<path d="M510 805 c0 -8 5 -15 10 -15 6 0 10 7 10 15 0 8 -4 15 -10 15 -5 0
-10 -7 -10 -15z"/>
<path d="M573 803 c9 -2 25 -2 35 0 9 3 1 5 -18 5 -19 0 -27 -2 -17 -5z"/>
<path d="M480 696 c0 -9 5 -16 10 -16 6 0 10 4 10 9 0 6 -4 13 -10 16 -5 3
-10 -1 -10 -9z"/>
<path d="M513 691 c0 -11 5 -17 9 -15 11 7 10 34 -1 34 -6 0 -9 -9 -8 -19z"/>
<path d="M573 683 c9 -2 25 -2 35 0 9 3 1 5 -18 5 -19 0 -27 -2 -17 -5z"/>
<path d="M510 575 c0 -8 5 -15 10 -15 6 0 10 7 10 15 0 8 -4 15 -10 15 -5 0
-10 -7 -10 -15z"/>
<path d="M578 573 c12 -2 30 -2 40 0 9 3 -1 5 -23 4 -22 0 -30 -2 -17 -4z"/>
<path d="M480 459 c0 -11 5 -17 10 -14 6 3 10 13 10 21 0 8 -4 14 -10 14 -5 0
-10 -9 -10 -21z"/>
<path d="M513 461 c0 -11 5 -17 9 -15 11 7 10 34 -1 34 -6 0 -9 -9 -8 -19z"/>
<path d="M573 453 c9 -2 25 -2 35 0 9 3 1 5 -18 5 -19 0 -27 -2 -17 -5z"/>
<path d="M2197 393 c-12 -11 -8 -23 8 -23 8 0 15 7 15 15 0 16 -12 20 -23 8z"/>
<path d="M2390 385 c0 -8 5 -15 10 -15 6 0 10 7 10 15 0 8 -4 15 -10 15 -5 0
-10 -7 -10 -15z"/>
<path d="M510 345 c0 -8 5 -15 10 -15 6 0 10 7 10 15 0 8 -4 15 -10 15 -5 0
-10 -7 -10 -15z"/>
<path d="M560 342 c0 -4 16 -6 35 -4 19 2 35 6 35 8 0 2 -16 4 -35 4 -19 0
-35 -4 -35 -8z"/>
<path d="M772 290 c0 -14 2 -19 5 -12 2 6 2 18 0 25 -3 6 -5 1 -5 -13z"/>
<path d="M790 290 c0 -13 6 -20 18 -19 12 0 13 2 3 6 -10 4 -10 7 -1 13 8 5 7
9 -4 13 -11 5 -16 1 -16 -13z"/>
<path d="M1263 288 c-1 -10 3 -18 8 -18 6 0 7 5 4 10 -3 6 -2 10 4 10 5 0 12
-6 14 -12 4 -10 8 -9 16 2 9 13 12 13 20 1 5 -7 14 -10 20 -7 17 11 13 25 -6
24 -10 0 -32 2 -48 4 -25 4 -31 1 -32 -14z"/>
<path d="M1764 290 c0 -15 4 -16 19 -8 14 7 17 7 13 -1 -4 -6 -2 -11 3 -11 12
0 15 30 4 31 -5 0 -15 2 -23 4 -10 1 -16 -5 -16 -15z"/>
<path d="M2281 293 c-1 -14 5 -23 14 -23 8 0 15 8 15 18 0 14 -2 14 -9 3 -7
-11 -10 -10 -14 5 -4 16 -5 16 -6 -3z"/>
<path d="M830 285 c0 -8 7 -15 15 -15 8 0 15 7 15 15 0 8 -7 15 -15 15 -8 0
-15 -7 -15 -15z"/>
<path d="M1823 286 c5 -16 27 -19 27 -3 0 7 -7 14 -15 14 -9 0 -14 -5 -12 -11z"/>
<path d="M2255 291 c-3 -5 -1 -12 5 -16 5 -3 10 1 10 9 0 18 -6 21 -15 7z"/>
<path d="M2320 285 c0 -8 7 -15 15 -15 8 0 15 7 15 15 0 8 -7 15 -15 15 -8 0
-15 -7 -15 -15z"/>
<path d="M1427 210 c3 -11 7 -20 9 -20 2 0 4 9 4 20 0 11 -4 20 -9 20 -5 0 -7
-9 -4 -20z"/>
<path d="M1450 215 c0 -8 3 -15 8 -16 4 0 19 -2 35 -4 22 -3 27 0 26 18 0 21
-1 21 -9 2 -9 -20 -9 -20 -10 0 -1 11 -4 14 -7 8 -3 -9 -10 -10 -24 -3 -15 8
-19 7 -19 -5z"/>
<path d="M1573 209 c-1 -11 3 -19 8 -19 6 0 7 5 4 10 -9 14 9 12 24 -2 10 -11
12 -9 9 7 -4 26 -43 29 -45 4z"/>
<path d="M1633 215 c0 -8 4 -12 8 -9 4 2 10 -2 12 -8 3 -7 6 -3 6 10 1 12 -5
22 -12 22 -8 0 -14 -7 -14 -15z"/>
<path d="M1380 210 c0 -5 7 -10 15 -10 8 0 15 5 15 10 0 6 -7 10 -15 10 -8 0
-15 -4 -15 -10z"/>
<path d="M1530 210 c0 -5 5 -10 10 -10 6 0 10 5 10 10 0 6 -4 10 -10 10 -5 0
-10 -4 -10 -10z"/>
</g>
</svg>
