<?xml version="1.0" standalone="no"?>
<!DOCTYPE svg PUBLIC "-//W3C//DTD SVG 20010904//EN"
 "http://www.w3.org/TR/2001/REC-SVG-20010904/DTD/svg10.dtd">
<svg version="1.0" xmlns="http://www.w3.org/2000/svg"
 width="1280.000000pt" height="720.000000pt" viewBox="0 0 1280.000000 720.000000"
 preserveAspectRatio="xMidYMid meet">

<g transform="translate(0.000000,720.000000) scale(0.100000,-0.100000)"
fill="#000000" stroke="none">
<path d="M6060 6375 c0 -18 -5 -25 -20 -25 -11 0 -20 -4 -20 -10 0 -5 9 -10
20 -10 16 0 20 -7 20 -30 0 -20 5 -30 15 -30 12 0 15 14 15 65 0 51 -3 65 -15
65 -9 0 -15 -9 -15 -25z"/>
<path d="M6290 6375 c0 -18 -5 -25 -20 -25 -11 0 -20 -4 -20 -10 0 -5 9 -10
20 -10 16 0 20 -7 20 -30 0 -20 5 -30 15 -30 12 0 15 14 15 65 0 51 -3 65 -15
65 -9 0 -15 -9 -15 -25z"/>
<path d="M6830 6365 c0 -19 -4 -35 -10 -35 -5 0 -10 14 -10 30 0 20 -5 30 -15
30 -12 0 -15 -14 -15 -65 l0 -65 -40 0 c-36 0 -40 3 -40 25 0 21 5 25 30 25
28 0 30 3 30 35 0 35 0 35 -45 35 -25 0 -45 -4 -45 -10 0 -5 16 -10 35 -10 24
0 35 -5 35 -15 0 -10 -11 -15 -35 -15 -35 0 -35 0 -35 -45 l0 -45 55 0 c54 0
55 0 55 -30 0 -20 5 -30 15 -30 12 0 15 14 15 65 0 37 4 65 10 65 6 0 10 -30
10 -70 0 -56 3 -70 15 -70 12 0 15 19 15 115 0 96 -3 115 -15 115 -10 0 -15
-11 -15 -35z"/>
<path d="M5950 6362 c0 -17 -10 -38 -25 -52 -32 -30 -22 -46 14 -21 26 19 28
19 51 1 l23 -18 -21 -6 c-50 -16 -48 -79 3 -92 58 -14 107 24 85 66 -6 11 -22
23 -35 26 -14 3 -22 10 -20 15 3 4 -6 16 -20 25 -19 12 -25 25 -25 50 0 24 -5
34 -15 34 -10 0 -15 -10 -15 -28z m94 -118 c9 -3 16 -14 16 -24 0 -30 -66 -43
-76 -15 -14 36 17 56 60 39z"/>
<path d="M6140 6380 c0 -5 17 -10 38 -10 l37 -1 -43 -40 c-47 -44 -48 -72 -2
-39 27 20 31 20 54 5 31 -21 45 -2 14 19 -17 12 -20 18 -10 28 7 7 12 20 12
30 0 15 -9 18 -50 18 -27 0 -50 -4 -50 -10z"/>
<path d="M6920 6380 c0 -5 7 -10 15 -10 10 0 15 -10 15 -30 0 -20 -5 -30 -15
-30 -8 0 -15 -4 -15 -10 0 -6 33 -10 80 -10 47 0 80 4 80 10 0 6 -7 10 -15 10
-10 0 -15 10 -15 30 0 20 5 30 15 30 8 0 15 5 15 10 0 6 -33 10 -80 10 -47 0
-80 -4 -80 -10z m100 -40 c0 -23 -4 -30 -20 -30 -16 0 -20 7 -20 30 0 23 4 30
20 30 16 0 20 -7 20 -30z"/>
<path d="M6470 6370 c0 -5 25 -10 55 -10 54 0 55 -1 55 -29 0 -16 -3 -43 -6
-60 l-6 -31 -69 0 c-39 0 -69 -4 -69 -10 0 -6 43 -10 110 -10 67 0 110 4 110
10 0 6 -14 10 -31 10 -22 0 -30 4 -26 13 3 8 8 39 12 70 l7 57 -71 0 c-41 0
-71 -4 -71 -10z"/>
<path d="M6180 6250 c0 -5 25 -10 55 -10 l55 0 0 -35 c0 -24 5 -35 15 -35 11
0 15 12 15 45 l0 45 -70 0 c-40 0 -70 -4 -70 -10z"/>
<path d="M6890 6230 c0 -6 43 -10 110 -10 67 0 110 4 110 10 0 6 -43 10 -110
10 -67 0 -110 -4 -110 -10z"/>
<path d="M2073 5900 c-28 -48 -30 -67 -3 -22 25 41 34 41 27 -3 -3 -19 -1 -37
4 -40 5 -4 9 18 9 49 0 31 -3 56 -7 56 -5 0 -18 -18 -30 -40z"/>
<path d="M2180 5915 c0 -14 6 -25 14 -25 9 0 12 8 8 25 -2 14 -8 25 -13 25 -5
0 -9 -11 -9 -25z"/>
<path d="M2232 5881 c9 -15 9 -23 -1 -35 -9 -10 -10 -16 -2 -16 13 0 26 45 16
59 -3 6 -10 11 -16 11 -5 0 -4 -9 3 -19z"/>
<path d="M2187 5839 c7 -7 15 -10 18 -7 3 3 -2 9 -12 12 -14 6 -15 5 -6 -5z"/>
<path d="M8025 5500 c-4 -7 2 -9 18 -5 31 8 47 -13 23 -30 -15 -12 -15 -13 0
-19 10 -4 14 -13 11 -26 -3 -11 -1 -18 3 -15 10 6 7 75 -3 93 -10 15 -43 16
-52 2z"/>
<path d="M8157 5503 c-14 -13 -6 -42 15 -57 18 -13 19 -18 8 -31 -7 -8 -10
-18 -7 -21 3 -4 16 14 28 39 19 38 20 48 9 61 -13 16 -41 21 -53 9z m51 -26
c4 -20 -25 -34 -40 -19 -15 15 -1 44 19 40 10 -2 19 -11 21 -21z"/>
<path d="M2203 5410 c-28 -48 -30 -67 -3 -22 25 41 34 41 27 -3 -3 -19 -1 -37
4 -40 5 -4 9 18 9 49 0 31 -3 56 -7 56 -5 0 -18 -18 -30 -40z"/>
<path d="M8030 5400 c8 -5 20 -10 25 -10 6 0 3 5 -5 10 -8 5 -19 10 -25 10 -5
0 -3 -5 5 -10z"/>
<path d="M7790 5081 c0 -172 -2 -190 -17 -194 -17 -4 -17 -5 0 -6 16 -1 17
-90 17 -1711 l0 -1710 325 0 325 0 0 243 c0 133 0 571 0 974 0 688 1 732 18
736 16 4 16 5 0 6 -17 1 -18 20 -18 240 0 220 1 240 18 244 16 4 16 5 0 6 -17
1 -18 20 -18 240 0 220 1 240 18 244 16 4 16 5 0 6 -17 1 -18 20 -18 240 l0
240 43 4 42 4 -42 1 -43 2 0 190 0 190 -325 0 -325 0 0 -189z"/>
<path d="M7175 5190 c-3 -6 1 -7 9 -4 18 7 21 14 7 14 -6 0 -13 -4 -16 -10z"/>
<path d="M7297 5193 c-11 -10 -8 -53 3 -53 6 0 10 11 10 24 0 18 7 26 23 29
20 4 20 4 -4 6 -14 0 -29 -2 -32 -6z"/>
<path d="M7393 5188 c-6 -7 -10 -33 -9 -58 1 -43 2 -45 31 -45 29 0 30 2 31
45 1 46 -9 70 -31 70 -7 0 -17 -6 -22 -12z m45 -15 c5 -17 -26 -29 -40 -15 -6
6 -7 15 -3 22 9 14 37 9 43 -7z m-3 -58 c0 -13 -8 -21 -22 -23 -17 -3 -23 2
-23 16 0 10 3 22 7 26 13 13 38 1 38 -19z"/>
<path d="M7214 5182 c4 -7 2 -20 -5 -28 -10 -13 -10 -17 1 -24 22 -14 3 -43
-25 -38 -13 3 -22 1 -19 -3 8 -13 40 -11 52 4 11 14 10 83 -2 94 -5 4 -6 2 -2
-5z"/>
<path d="M7333 5145 c25 -25 17 -50 -16 -50 -15 1 -23 -3 -18 -8 13 -13 42 -5
55 16 12 19 0 47 -25 56 -9 3 -8 -2 4 -14z"/>
<path d="M5855 5030 c-4 -7 2 -9 18 -5 31 8 47 -13 23 -30 -15 -12 -15 -13 0
-19 10 -4 14 -13 11 -26 -3 -11 -1 -18 3 -15 10 6 7 75 -3 93 -10 15 -43 16
-52 2z"/>
<path d="M6002 4998 c-28 -54 -28 -58 3 -58 14 0 25 -6 25 -12 0 -10 2 -10 8
-1 8 13 3 113 -6 113 -4 0 -17 -19 -30 -42z m28 -18 c0 -23 -4 -30 -20 -30
-24 0 -25 4 -4 35 21 32 24 31 24 -5z"/>
<path d="M6075 5030 c-4 -7 2 -9 18 -5 38 10 41 -11 8 -54 -17 -21 -31 -42
-31 -45 0 -3 17 -5 38 -5 30 2 32 3 10 6 -32 5 -35 15 -12 33 27 23 37 50 23
66 -13 16 -45 19 -54 4z"/>
<path d="M2055 4950 c-3 -6 1 -7 9 -4 18 7 21 14 7 14 -6 0 -13 -4 -16 -10z"/>
<path d="M2099 4946 c9 -10 8 -16 -4 -26 -14 -11 -13 -14 2 -25 15 -11 16 -15
3 -31 -13 -15 -13 -17 0 -12 24 8 22 108 -2 108 -7 0 -6 -5 1 -14z"/>
<path d="M2180 4935 c0 -14 6 -25 14 -25 9 0 12 8 8 25 -2 14 -8 25 -13 25 -5
0 -9 -11 -9 -25z"/>
<path d="M6960 4926 c0 -19 -6 -37 -12 -39 -10 -4 -10 -6 0 -6 9 -1 12 -350
12 -1711 l0 -1710 325 0 325 0 0 243 c0 133 0 572 0 975 l0 732 23 1 22 0 -22
9 c-23 9 -23 10 -23 245 l0 235 23 1 22 0 -22 9 c-23 9 -23 10 -23 245 l0 235
23 1 22 0 -22 9 c-23 9 -23 10 -23 244 l0 235 48 4 47 3 -47 2 c-48 2 -48 2
-48 37 l0 35 -325 0 -325 0 0 -34z"/>
<path d="M5860 4930 c8 -5 20 -10 25 -10 6 0 3 5 -5 10 -8 5 -19 10 -25 10 -5
0 -3 -5 5 -10z"/>
<path d="M2232 4901 c9 -15 9 -23 -1 -35 -9 -10 -10 -16 -2 -16 13 0 26 45 16
59 -3 6 -10 11 -16 11 -5 0 -4 -9 3 -19z"/>
<path d="M2057 4859 c7 -7 15 -10 18 -7 3 3 -2 9 -12 12 -14 6 -15 5 -6 -5z"/>
<path d="M2187 4859 c7 -7 15 -10 18 -7 3 3 -2 9 -12 12 -14 6 -15 5 -6 -5z"/>
<path d="M5670 3130 l0 -1670 325 0 325 0 0 243 c0 133 0 571 0 974 0 688 1
732 18 736 16 4 16 5 0 6 -17 1 -18 20 -18 240 0 220 1 240 18 244 16 4 16 5
0 6 -17 1 -18 20 -18 240 0 220 1 240 18 244 16 4 16 5 0 6 -17 1 -18 18 -18
201 l0 200 -325 0 -325 0 0 -1670z"/>
<path d="M2935 4780 c-3 -6 1 -7 9 -4 18 7 21 14 7 14 -6 0 -13 -4 -16 -10z"/>
<path d="M3079 4786 c-8 -8 3 -116 12 -116 11 0 12 107 0 114 -4 3 -10 4 -12
2z"/>
<path d="M3160 4754 c-27 -47 -24 -79 9 -79 13 0 29 8 35 18 9 15 7 22 -12 37
-19 16 -21 23 -12 40 19 35 3 22 -20 -16z m34 -40 c7 -19 -1 -34 -19 -34 -18
0 -28 17 -21 35 7 20 32 19 40 -1z"/>
<path d="M2974 4772 c4 -7 2 -20 -5 -28 -10 -13 -10 -17 1 -24 22 -14 3 -43
-25 -38 -13 3 -22 1 -19 -3 8 -13 40 -11 52 4 11 14 10 83 -2 94 -5 4 -6 2 -2
-5z"/>
<path d="M2730 3005 l0 -1545 325 0 325 0 0 243 c0 133 0 572 0 975 l0 732 23
1 22 0 -22 9 c-23 9 -23 10 -23 245 l0 235 23 1 22 0 -22 9 c-23 9 -23 10 -23
245 l0 235 23 1 22 0 -22 9 c-21 8 -23 16 -23 80 l0 70 -325 0 -325 0 0 -1545z"/>
<path d="M2195 4470 c-3 -6 1 -7 9 -4 18 7 21 14 7 14 -6 0 -13 -4 -16 -10z"/>
<path d="M2234 4462 c4 -7 2 -20 -5 -28 -10 -13 -10 -17 1 -24 22 -14 3 -43
-25 -38 -13 3 -22 1 -19 -3 8 -13 40 -11 52 4 11 14 10 83 -2 94 -5 4 -6 2 -2
-5z"/>
<path d="M3785 4420 c-3 -6 1 -7 9 -4 18 7 21 14 7 14 -6 0 -13 -4 -16 -10z"/>
<path d="M3829 4417 c8 -10 3 -24 -20 -55 -17 -23 -27 -42 -22 -42 4 0 21 19
36 41 28 38 30 69 6 69 -8 0 -9 -4 0 -13z"/>
<path d="M3917 4423 c-10 -18 -1 -96 11 -99 7 -1 8 0 2 3 -14 7 -13 40 3 46 9
3 9 8 -2 21 -13 15 -13 19 0 27 9 5 10 9 2 9 -6 0 -14 -3 -16 -7z"/>
<path d="M3957 4419 c9 -9 9 -16 2 -25 -7 -9 -6 -19 3 -34 11 -17 11 -22 -2
-31 -13 -9 -13 -10 0 -6 11 3 15 18 15 52 0 34 -4 50 -15 53 -12 4 -13 2 -3
-9z"/>
<path d="M3608 4203 l-58 -4 0 -1364 0 -1365 325 0 325 0 0 238 c0 130 0 566
0 969 0 688 1 732 18 736 16 4 16 5 0 6 -17 1 -18 20 -18 240 0 220 1 240 18
244 16 4 16 5 0 6 -16 1 -18 15 -18 145 l0 143 -37 7 c-39 6 -451 5 -555 -1z"/>
<path d="M5085 4130 c-4 -7 2 -9 18 -5 38 10 41 -11 8 -54 -17 -21 -31 -42
-31 -45 0 -3 17 -5 38 -5 30 2 32 3 10 6 -32 5 -35 15 -12 33 27 23 37 50 23
66 -13 16 -45 19 -54 4z"/>
<path d="M5210 4111 c0 -26 3 -30 28 -28 24 2 27 -1 25 -27 -2 -21 1 -26 9
-18 17 17 1 62 -22 62 -27 0 -25 28 3 33 16 3 13 5 -10 6 -30 1 -33 -2 -33
-28z"/>
<path d="M5220 4030 c8 -5 20 -10 25 -10 6 0 3 5 -5 10 -8 5 -19 10 -25 10 -5
0 -3 -5 5 -10z"/>
<path d="M2059 3974 c-13 -16 -12 -16 8 -3 17 10 25 11 34 2 12 -12 12 -12
-37 -80 -16 -23 -16 -23 22 -22 31 2 34 3 11 6 l-28 4 27 36 c21 27 25 40 17
52 -14 23 -37 25 -54 5z"/>
<path d="M2187 3983 c-11 -10 -8 -53 3 -53 6 0 10 11 10 24 0 18 7 26 23 29
20 4 20 4 -4 6 -14 0 -29 -2 -32 -6z"/>
<path d="M2223 3935 c25 -25 17 -50 -16 -50 -15 1 -23 -3 -18 -8 13 -13 42 -5
55 16 12 19 0 47 -25 56 -9 3 -8 -2 4 -14z"/>
<path d="M4840 2685 l0 -1225 325 0 325 0 0 243 c0 133 0 572 0 975 l0 732 23
1 22 0 -23 9 -23 10 3 240 3 240 -327 0 -328 0 0 -1225z"/>
<path d="M2189 3484 c-13 -16 -12 -16 8 -3 17 10 25 11 34 2 12 -12 12 -12
-37 -80 -16 -23 -16 -23 22 -22 31 2 34 3 11 6 l-28 4 27 36 c21 27 25 40 17
52 -14 23 -37 25 -54 5z"/>
<path d="M2070 3000 c-10 -6 -11 -10 -2 -10 8 0 12 -17 12 -50 0 -27 5 -50 10
-50 6 0 10 27 10 60 0 61 -4 67 -30 50z"/>
<path d="M2180 2981 c0 -26 3 -30 28 -28 23 2 27 -2 27 -23 0 -21 -4 -25 -30
-23 -28 1 -29 1 -8 -9 17 -8 27 -7 38 2 22 18 15 53 -12 65 -31 13 -29 33 5
38 22 3 20 4 -10 6 -36 1 -38 -1 -38 -28z"/>
<path d="M2200 2510 c-10 -6 -11 -10 -2 -10 8 0 12 -17 12 -50 0 -27 5 -50 10
-50 6 0 10 27 10 60 0 61 -4 67 -30 50z"/>
<path d="M2063 2023 c-8 -3 -13 -24 -13 -53 0 -40 4 -50 20 -55 30 -10 50 12
50 54 0 50 -20 69 -57 54z m42 -53 c0 -38 -3 -45 -20 -45 -15 0 -21 8 -23 33
-4 45 4 64 25 60 14 -3 18 -13 18 -48z"/>
<path d="M2180 2001 c0 -26 3 -30 28 -28 23 2 27 -2 27 -23 0 -21 -4 -25 -30
-23 -28 1 -29 1 -8 -9 17 -8 27 -7 38 2 22 18 15 53 -12 65 -31 13 -29 33 5
38 22 3 20 4 -10 6 -36 1 -38 -1 -38 -28z"/>
<path d="M9384 1676 c-9 -24 0 -89 14 -92 7 -1 8 0 2 3 -15 7 -13 90 3 96 9 4
9 6 -1 6 -7 1 -15 -5 -18 -13z"/>
<path d="M9428 1679 c6 -7 12 -27 12 -44 0 -17 -6 -37 -12 -44 -11 -11 -10
-13 2 -9 11 3 15 19 15 53 0 34 -4 50 -15 53 -12 4 -13 2 -2 -9z"/>
<path d="M10204 1676 c-9 -24 0 -89 14 -92 7 -1 8 0 2 3 -15 7 -13 90 3 96 9
4 9 6 -1 6 -7 1 -15 -5 -18 -13z"/>
<path d="M10248 1679 c6 -7 12 -27 12 -44 0 -17 -6 -37 -12 -44 -11 -11 -10
-13 2 -9 11 3 15 19 15 53 0 34 -4 50 -15 53 -12 4 -13 2 -2 -9z"/>
<path d="M2193 1533 c-8 -3 -13 -24 -13 -53 0 -40 4 -50 20 -55 30 -10 50 12
50 54 0 50 -20 69 -57 54z m42 -53 c0 -38 -3 -45 -20 -45 -15 0 -21 8 -23 33
-4 45 4 64 25 60 14 -3 18 -13 18 -48z"/>
<path d="M3285 1280 c-3 -5 -2 -10 4 -10 5 0 12 -24 14 -52 l3 -53 2 63 c2 57
-7 77 -23 52z"/>
<path d="M3378 1283 c6 -2 18 -2 25 0 6 3 1 5 -13 5 -14 0 -19 -2 -12 -5z"/>
<path d="M3453 1245 c0 -27 2 -40 4 -28 2 12 12 24 21 26 16 4 16 5 0 6 -9 0
-19 11 -21 24 -2 12 -4 0 -4 -28z"/>
<path d="M3542 1258 l-2 -38 43 2 42 1 -37 4 c-33 4 -37 8 -41 36 -4 31 -4 31
-5 -5z"/>
<path d="M3620 1280 c-24 -8 -24 -8 -2 -9 12 -1 22 -5 22 -10 0 -5 -10 -12
-22 -14 -23 -4 -23 -4 -1 -6 16 -1 23 -9 26 -28 2 -16 5 -4 6 25 0 28 0 52 -1
51 -2 -1 -14 -5 -28 -9z"/>
<path d="M5396 1281 c-3 -5 2 -7 13 -4 27 7 36 -14 17 -40 -9 -12 -23 -32 -32
-44 -16 -23 -16 -23 22 -22 31 2 34 3 11 6 l-28 4 27 36 c21 27 25 40 17 52
-12 19 -39 26 -47 12z"/>
<path d="M5498 1283 c6 -2 18 -2 25 0 6 3 1 5 -13 5 -14 0 -19 -2 -12 -5z"/>
<path d="M5573 1245 c0 -27 2 -40 4 -28 2 12 12 24 21 26 16 4 16 5 0 6 -9 0
-19 11 -21 24 -2 12 -4 0 -4 -28z"/>
<path d="M5662 1258 l-2 -38 43 2 42 1 -37 4 c-33 4 -37 8 -41 36 -4 31 -4 31
-5 -5z"/>
<path d="M5740 1280 c-24 -8 -24 -8 -2 -9 12 -1 22 -5 22 -10 0 -5 -10 -12
-22 -14 -23 -4 -23 -4 -1 -6 16 -1 23 -9 26 -28 2 -16 5 -4 6 25 0 28 0 52 -1
51 -2 -1 -14 -5 -28 -9z"/>
<path d="M7516 1281 c-4 -5 2 -7 13 -4 22 6 38 -14 22 -30 -7 -7 -7 -14 0 -24
19 -23 2 -46 -29 -39 -22 5 -24 4 -9 -4 9 -6 26 -8 37 -5 15 5 19 15 18 48 -1
23 -6 48 -11 55 -11 14 -33 16 -41 3z"/>
<path d="M7618 1283 c6 -2 18 -2 25 0 6 3 1 5 -13 5 -14 0 -19 -2 -12 -5z"/>
<path d="M7693 1245 c0 -27 2 -40 4 -28 2 12 12 24 21 26 16 4 16 5 0 6 -9 0
-19 11 -21 24 -2 12 -4 0 -4 -28z"/>
<path d="M7782 1258 l-2 -38 43 2 42 1 -37 4 c-33 4 -37 8 -41 36 -4 31 -4 31
-5 -5z"/>
<path d="M7860 1280 c-24 -8 -24 -8 -2 -9 12 -1 22 -5 22 -10 0 -5 -10 -12
-22 -14 -23 -4 -23 -4 -1 -6 16 -1 23 -9 26 -28 2 -16 5 -4 6 25 0 28 0 52 -1
51 -2 -1 -14 -5 -28 -9z"/>
<path d="M9669 1285 c-4 -3 -5 -24 -2 -46 5 -35 4 -39 -17 -39 -22 0 -22 1 -5
26 9 14 14 28 12 31 -5 4 -37 -49 -37 -62 0 -3 11 -5 24 -5 13 0 26 -5 28 -12
3 -8 6 -7 9 3 6 20 -5 112 -12 104z"/>
<path d="M9738 1283 c6 -2 18 -2 25 0 6 3 1 5 -13 5 -14 0 -19 -2 -12 -5z"/>
<path d="M9813 1245 c0 -27 2 -40 4 -28 2 12 12 24 21 26 16 4 16 5 0 6 -9 0
-19 11 -21 24 -2 12 -4 0 -4 -28z"/>
<path d="M9902 1258 l-2 -38 43 2 42 1 -37 4 c-33 4 -37 8 -41 36 -4 31 -4 31
-5 -5z"/>
<path d="M9980 1280 c-24 -8 -24 -8 -2 -9 12 -1 22 -5 22 -10 0 -5 -10 -12
-22 -14 -23 -4 -23 -4 -1 -6 16 -1 23 -9 26 -28 2 -16 5 -4 6 25 0 28 0 52 -1
51 -2 -1 -14 -5 -28 -9z"/>
<path d="M3368 1263 c12 -2 32 -2 45 0 12 2 2 4 -23 4 -25 0 -35 -2 -22 -4z"/>
<path d="M5488 1263 c12 -2 32 -2 45 0 12 2 2 4 -23 4 -25 0 -35 -2 -22 -4z"/>
<path d="M7608 1263 c12 -2 32 -2 45 0 12 2 2 4 -23 4 -25 0 -35 -2 -22 -4z"/>
<path d="M9728 1263 c12 -2 32 -2 45 0 12 2 2 4 -23 4 -25 0 -35 -2 -22 -4z"/>
<path d="M3365 1240 c-4 -7 -3 -16 3 -22 14 -14 47 -6 47 12 0 18 -40 26 -50
10z m45 -10 c0 -5 -9 -10 -20 -10 -11 0 -20 5 -20 10 0 6 9 10 20 10 11 0 20
-4 20 -10z"/>
<path d="M5485 1240 c-4 -7 -3 -16 3 -22 14 -14 47 -6 47 12 0 18 -40 26 -50
10z m45 -10 c0 -5 -9 -10 -20 -10 -11 0 -20 5 -20 10 0 6 9 10 20 10 11 0 20
-4 20 -10z"/>
<path d="M7605 1240 c-4 -7 -3 -16 3 -22 14 -14 47 -6 47 12 0 18 -40 26 -50
10z m45 -10 c0 -5 -9 -10 -20 -10 -11 0 -20 5 -20 10 0 6 9 10 20 10 11 0 20
-4 20 -10z"/>
<path d="M9725 1240 c-4 -7 -3 -16 3 -22 14 -14 47 -6 47 12 0 18 -40 26 -50
10z m45 -10 c0 -5 -9 -10 -20 -10 -11 0 -20 5 -20 10 0 6 9 10 20 10 11 0 20
-4 20 -10z"/>
<path d="M3571 1178 c-1 -27 1 -28 42 -26 l42 1 -37 4 c-28 3 -38 9 -41 26 -4
18 -5 17 -6 -5z"/>
<path d="M5691 1178 c-1 -27 1 -28 42 -26 l42 1 -37 4 c-28 3 -38 9 -41 26 -4
18 -5 17 -6 -5z"/>
<path d="M7811 1178 c-1 -27 1 -28 42 -26 l42 1 -37 4 c-28 3 -38 9 -41 26 -4
18 -5 17 -6 -5z"/>
<path d="M9931 1178 c-1 -27 1 -28 42 -26 l42 1 -37 4 c-28 3 -38 9 -41 26 -4
18 -5 17 -6 -5z"/>
<path d="M3412 1183 c24 -3 38 -10 41 -21 3 -12 5 -11 6 6 1 20 -3 22 -41 20
l-43 -1 37 -4z"/>
<path d="M5532 1183 c24 -3 38 -10 41 -21 3 -12 5 -11 6 6 1 20 -3 22 -41 20
l-43 -1 37 -4z"/>
<path d="M7652 1183 c24 -3 38 -10 41 -21 3 -12 5 -11 6 6 1 20 -3 22 -41 20
l-43 -1 37 -4z"/>
<path d="M9772 1183 c24 -3 38 -10 41 -21 3 -12 5 -11 6 6 1 20 -3 22 -41 20
l-43 -1 37 -4z"/>
<path d="M6095 950 c-3 -5 -2 -10 4 -10 5 0 12 -24 14 -52 l3 -53 2 63 c2 57
-7 77 -23 52z"/>
<path d="M6198 953 c6 -2 18 -2 25 0 6 3 1 5 -13 5 -14 0 -19 -2 -12 -5z"/>
<path d="M6273 915 c0 -27 2 -40 4 -28 2 12 12 24 21 26 16 4 16 5 0 6 -9 0
-19 11 -21 24 -2 12 -4 0 -4 -28z"/>
<path d="M6443 890 c0 -41 2 -58 4 -37 2 20 2 54 0 75 -2 20 -4 3 -4 -38z"/>
<path d="M6706 951 c-3 -5 2 -7 13 -4 27 7 36 -14 17 -40 -9 -12 -23 -32 -32
-44 -16 -23 -16 -23 22 -22 31 2 34 3 11 6 l-28 4 27 36 c21 27 25 40 17 52
-12 19 -39 26 -47 12z"/>
<path d="M6818 953 c6 -2 18 -2 25 0 6 3 1 5 -13 5 -14 0 -19 -2 -12 -5z"/>
<path d="M6893 915 c0 -27 2 -40 4 -28 2 12 12 24 21 26 16 4 16 5 0 6 -9 0
-19 11 -21 24 -2 12 -4 0 -4 -28z"/>
<path d="M7063 890 c0 -41 2 -58 4 -37 2 20 2 54 0 75 -2 20 -4 3 -4 -38z"/>
<path d="M6363 943 c34 -5 34 -17 2 -49 -36 -35 -31 -44 5 -9 41 39 40 65 -2
64 -31 -2 -31 -2 -5 -6z"/>
<path d="M6983 943 c34 -5 34 -17 2 -49 -36 -35 -31 -44 5 -9 41 39 40 65 -2
64 -31 -2 -31 -2 -5 -6z"/>
<path d="M6188 933 c12 -2 32 -2 45 0 12 2 2 4 -23 4 -25 0 -35 -2 -22 -4z"/>
<path d="M6808 933 c12 -2 32 -2 45 0 12 2 2 4 -23 4 -25 0 -35 -2 -22 -4z"/>
<path d="M5910 890 l0 -40 45 0 45 0 0 40 0 40 -45 0 -45 0 0 -40z"/>
<path d="M6530 890 l0 -40 45 0 45 0 0 40 0 40 -45 0 -45 0 0 -40z"/>
<path d="M6185 910 c-4 -7 -3 -16 3 -22 14 -14 47 -6 47 12 0 18 -40 26 -50
10z m45 -10 c0 -5 -9 -10 -20 -10 -11 0 -20 5 -20 10 0 6 9 10 20 10 11 0 20
-4 20 -10z"/>
<path d="M6805 910 c-4 -7 -3 -16 3 -22 14 -14 47 -6 47 12 0 18 -40 26 -50
10z m45 -10 c0 -5 -9 -10 -20 -10 -11 0 -20 5 -20 10 0 6 9 10 20 10 11 0 20
-4 20 -10z"/>
<path d="M6232 853 c24 -3 38 -10 41 -21 3 -12 5 -11 6 6 1 20 -3 22 -41 20
l-43 -1 37 -4z"/>
<path d="M6852 853 c24 -3 38 -10 41 -21 3 -12 5 -11 6 6 1 20 -3 22 -41 20
l-43 -1 37 -4z"/>
</g>
</svg>
